<?xml version="1.0" standalone="no"?>
<!DOCTYPE svg PUBLIC "-//W3C//DTD SVG 1.1//EN" "http://www.w3.org/Graphics/SVG/1.1/DTD/svg11.dtd" >
<svg xmlns="http://www.w3.org/2000/svg" xmlns:xlink="http://www.w3.org/1999/xlink" version="1.1">
<metadata>
Created by FontForge 20161013 at Tue Dec 15 23:39:36 1992
 By ,,,
Copyright 1990-1993 Bitstream Inc.  All rights reserved.
</metadata>
<defs>
<font id="Dutch801BT-Bold" horiz-adv-x="1024" >
  <font-face 
    font-family="Dutch801 Rm BT"
    font-weight="700"
    font-stretch="normal"
    units-per-em="2048"
    panose-1="2 2 8 3 4 5 5 2 3 4"
    ascent="1638"
    descent="-410"
    x-height="946"
    cap-height="1389"
    bbox="-342 -483 2343 1939"
    underline-thickness="190"
    underline-position="-496"
    unicode-range="U+0020-F002"
  />
<missing-glyph horiz-adv-x="1229" 
d="M102 -362v1806h1024v-1806h-1024zM217 -248h795v1577h-795v-1577z" />
    <glyph glyph-name=".notdef" horiz-adv-x="1229" 
d="M102 -362v1806h1024v-1806h-1024zM217 -248h795v1577h-795v-1577z" />
    <glyph glyph-name=".null" horiz-adv-x="0" 
 />
    <glyph glyph-name="nonmarkingreturn" horiz-adv-x="512" 
 />
    <glyph glyph-name="space" unicode=" " horiz-adv-x="512" 
 />
    <glyph glyph-name="exclam" unicode="!" horiz-adv-x="668" 
d="M506 139q0 -72 -50 -123t-122 -51t-122 51t-50 123t50 122t122 50t122 -50t50 -122zM307 463q-8 208 -73.5 452t-65.5 285q0 107 43.5 164t124.5 57q76 0 120 -52t44 -144q0 -72 -64 -323.5t-68 -438.5h-61z" />
    <glyph glyph-name="quotedbl" unicode="&#x22;" horiz-adv-x="707" 
d="M543 852h-41l-80 461q-2 12 -3 21t-1 16q0 53 28 83.5t76 30.5q49 0 77 -29.5t28 -80.5q0 -6 -1 -15t-3 -26zM203 852h-41l-80 461q-1 7 -1.5 14.5t-0.5 22.5q0 52 28 83t74 31q48 0 75.5 -29t27.5 -81q0 -16 -0.5 -24.5t-1.5 -16.5z" />
    <glyph glyph-name="numbersign" unicode="#" horiz-adv-x="1575" 
d="M705 852l-91 -252h265l88 252h-262zM711 1464h215l-148 -415h254l150 415h213l-148 -415h283l-74 -199h-278l-88 -248h292l-71 -196h-291l-148 -416h-215l148 416h-254l-150 -416h-215l148 416h-289l74 196h287l88 248h-304l74 199h299z" />
    <glyph glyph-name="dollar" unicode="$" 
d="M553 66q88 10 140 69t52 148q0 75 -42.5 128.5t-149.5 106.5v-452zM446 -203v201q-103 3 -190.5 26t-149.5 64v326h48q44 -165 118.5 -253t173.5 -95v516q-206 108 -289 204t-83 220q0 155 99 254.5t273 117.5v138h107v-132q93 -11 174.5 -36t153.5 -66v-297h-47
q-38 149 -107 230t-174 98v-434q240 -115 327 -216.5t87 -252.5q0 -177 -107.5 -284t-306.5 -128v-201h-107zM446 932v385q-81 -10 -126.5 -60t-45.5 -129q0 -60 40.5 -106.5t131.5 -89.5z" />
    <glyph glyph-name="percent" unicode="%" horiz-adv-x="1612" 
d="M1380 674q-49 0 -92.5 -43t-93.5 -144q-42 -84 -65 -161t-23 -131q0 -52 26.5 -82.5t71.5 -30.5q51 0 102 41t99 121q41 67 63.5 142.5t22.5 143.5q0 67 -29.5 105.5t-81.5 38.5zM868 250q0 114 45.5 217t130.5 186q64 61 136.5 92t148.5 31q107 0 171.5 -66.5
t64.5 -177.5q0 -71 -23.5 -154t-66.5 -163q-62 -114 -149.5 -174.5t-190.5 -60.5q-112 0 -189.5 78t-77.5 192zM641 1243q-16 1 -37 12t-59 39q-38 -4 -73 -32.5t-73 -85.5q-59 -92 -96 -193t-37 -166q0 -52 27 -82t72 -30q56 0 108.5 42t97.5 123q42 73 63 144.5t21 138.5
q0 25 -3.5 47.5t-10.5 42.5zM348 -29l709 1286q-58 -27 -118 -41t-120 -14q-27 0 -49.5 2.5t-42.5 7.5v-32q0 -242 -128 -409t-304 -167q-121 0 -191.5 73t-70.5 200q0 93 36.5 183t108.5 171q74 82 154 123t166 41q56 0 103.5 -21.5t96.5 -68.5q30 -16 62.5 -23.5
t70.5 -7.5q84 0 170 34t175 103h79l-798 -1440h-109z" />
    <glyph glyph-name="ampersand" unicode="&#x26;" horiz-adv-x="1608" 
d="M768 934q76 23 110.5 63.5t34.5 104.5q0 102 -51.5 175t-126.5 73q-54 0 -86.5 -34.5t-32.5 -92.5q0 -36 17.5 -79.5t52.5 -92.5zM887 215l-361 524q-79 -38 -119 -93.5t-40 -127.5q0 -59 26.5 -126.5t75.5 -131.5q50 -64 102.5 -94.5t114.5 -30.5q54 0 103 19.5t98 60.5
zM934 154q-106 -91 -223 -138t-236 -47q-170 0 -277.5 104.5t-107.5 266.5q0 140 98 255t293 206q-56 93 -80 160t-24 126q0 148 110.5 240t290.5 92q152 0 243 -65.5t91 -173.5q0 -104 -73.5 -179.5t-225.5 -130.5l299 -432q76 82 118 158.5t42 132.5q0 43 -29 62t-112 26
l-1 47h420v-47h-8q-51 0 -83 -18.5t-56 -63.5q-10 -17 -30 -54q-108 -196 -214 -310q77 -103 131.5 -146t106.5 -43q39 0 67 18t49 56l39 -27q-58 -135 -135.5 -197.5t-187.5 -62.5q-85 0 -157 45t-138 140z" />
    <glyph glyph-name="quotesingle" unicode="'" horiz-adv-x="365" 
d="M203 852h-41l-80 461q-2 12 -3 21t-1 16q0 53 28 83.5t76 30.5t75.5 -29t27.5 -81q0 -16 -0.5 -24.5t-1.5 -16.5z" />
    <glyph glyph-name="parenleft" unicode="(" horiz-adv-x="786" 
d="M715 1425v-69q-94 -50 -157.5 -137.5t-100.5 -219.5q-20 -71 -28.5 -164t-8.5 -260v-147q0 -308 65.5 -465t221.5 -252v-59q-247 127 -383 356.5t-136 517.5q0 295 134 524t393 375z" />
    <glyph glyph-name="parenright" unicode=")" horiz-adv-x="786" 
d="M70 -348v69q93 49 157 137.5t101 219.5q21 70 30 167t9 298v108q0 308 -65.5 465t-221.5 252v57q246 -127 382 -356.5t136 -517.5q0 -294 -134.5 -523t-393.5 -376z" />
    <glyph glyph-name="asterisk" unicode="*" 
d="M495 1016q-4 87 -50 182t-46 121q0 45 31.5 73.5t81.5 28.5t80.5 -28.5t30.5 -75.5q0 -21 -44.5 -117t-52.5 -184q40 22 74 56t68 85q4 7 13 21q58 86 118 86q41 0 73.5 -37.5t32.5 -83.5q0 -50 -29.5 -73.5t-120.5 -31.5q-79 -6 -125.5 -17.5t-84.5 -31.5
q38 -22 86 -34.5t126 -18.5q84 -6 116 -30.5t32 -78.5q0 -47 -33 -81.5t-77 -34.5q-57 0 -124 98l-6 9q-36 54 -68.5 87t-67.5 53q3 -87 49.5 -183t46.5 -120q0 -44 -31 -72t-82 -28t-81 27.5t-30 74.5q0 23 45.5 120t50.5 181q-38 -22 -72.5 -57.5t-68.5 -85.5
q-4 -6 -11 -17q-56 -87 -122 -87q-40 0 -73 37.5t-33 82.5q0 43 31 70.5t86 32.5q10 1 29 2q143 10 216 49q-88 47 -253 55q-1 0 0 0q-51 4 -80 31t-29 70q0 50 34 86.5t80 36.5q55 0 111 -85q9 -14 14 -21q38 -54 70.5 -86.5t68.5 -55.5z" />
    <glyph glyph-name="plus" unicode="+" horiz-adv-x="1706" 
d="M752 1221h202v-510h498v-199h-498v-512h-202v512h-498v199h498v510z" />
    <glyph glyph-name="comma" unicode="," horiz-adv-x="512" 
d="M102 -389l-30 49q116 79 168.5 145t52.5 132q0 22 -6 29t-25 7q-1 0 -15 -1t-26 -1q-70 0 -110.5 42.5t-40.5 115.5q0 81 46.5 130.5t123.5 49.5q85 0 139.5 -67t54.5 -174q0 -136 -81.5 -248.5t-250.5 -208.5z" />
    <glyph glyph-name="hyphen" unicode="-" horiz-adv-x="670" 
d="M88 350v246h494v-246h-494z" />
    <glyph glyph-name="period" unicode="." horiz-adv-x="512" 
d="M86 145q0 76 48.5 125t123.5 49q72 0 120 -50t48 -126q0 -74 -48.5 -123t-123.5 -49t-121.5 48t-46.5 126z" />
    <glyph glyph-name="slash" unicode="/" horiz-adv-x="551" 
d="M76 -190h-113l465 1611h113z" />
    <glyph glyph-name="zero" unicode="0" 
d="M53 690q0 319 130.5 521t326.5 202q197 0 329 -203t132 -520q0 -319 -130.5 -520t-326.5 -201q-197 0 -329 203t-132 518zM508 1343q-75 0 -103 -94.5t-28 -453.5v-105q0 -440 29.5 -545.5t109.5 -105.5q75 0 103 94.5t28 452.5v104q0 441 -29.5 547t-109.5 106z" />
    <glyph glyph-name="one" unicode="1" 
d="M680 205q0 -87 53 -122.5t190 -37.5l1 -45h-799v45q138 2 191 37.5t53 122.5v866q0 70 -16 91.5t-62 21.5q-30 0 -69.5 -10.5t-86.5 -30.5v49l510 219h35v-1206z" />
    <glyph glyph-name="two" unicode="2" 
d="M25 0v59l159 177q243 270 326.5 414t83.5 268q0 122 -64 193t-174 71q-84 0 -148 -47.5t-97 -135.5h-52q47 189 170 300.5t283 111.5q165 0 262.5 -101t97.5 -274q0 -111 -53 -211t-250 -299l-245 -247h272q167 0 221.5 34.5t89.5 132.5h43l-86 -446h-839z" />
    <glyph glyph-name="three" unicode="3" 
d="M289 737v37q126 34 192 101t66 163q0 94 -54 151.5t-141 57.5q-77 0 -138 -39t-122 -129l-41 23q79 150 199.5 229.5t269.5 79.5q151 0 239.5 -72t88.5 -194q0 -77 -42.5 -148t-119.5 -120q121 -59 177.5 -147t56.5 -218q0 -135 -68 -251.5t-193 -192.5
q-76 -48 -163 -72.5t-179 -24.5q-140 0 -225.5 54.5t-85.5 142.5q0 54 38.5 88.5t98.5 34.5q42 0 80 -16t68 -46q12 -12 35 -36q106 -113 174 -113q81 0 135.5 70t54.5 178q0 145 -104 251.5t-297 157.5z" />
    <glyph glyph-name="four" unicode="4" 
d="M553 537v581l-418 -581h418zM553 0v311h-508v226l639 874h162v-874h123v-226h-123v-311h-293z" />
    <glyph glyph-name="five" unicode="5" 
d="M111 672l198 710h641l-86 -262h-551l-42 -170q312 -1 478 -124.5t166 -354.5q0 -222 -157 -362t-410 -140q-135 0 -217 52.5t-82 136.5q0 56 35.5 90.5t93.5 34.5q37 0 76 -17.5t120 -78.5q5 -4 15 -11q104 -78 172 -78q85 0 141 58.5t56 148.5q0 161 -169.5 257
t-477.5 110z" />
    <glyph glyph-name="six" unicode="6" 
d="M406 738q-10 -57 -14.5 -119.5t-4.5 -133.5q0 -231 37.5 -341.5t116.5 -110.5q67 0 95 62.5t28 223.5q0 251 -39 349t-131 98q-27 0 -48 -7t-40 -21zM967 1409v-55q-210 -33 -347.5 -168.5t-189.5 -362.5q49 19 93.5 28t84.5 9q159 0 262 -116t103 -298
q0 -208 -124.5 -341.5t-318.5 -133.5q-204 0 -332 157.5t-128 412.5q0 367 239.5 599t657.5 269z" />
    <glyph glyph-name="seven" unicode="7" 
d="M319 -29l402 1137h-373q-99 0 -147.5 -38.5t-85.5 -141.5h-47l92 454h821l-481 -1411h-181z" />
    <glyph glyph-name="eight" unicode="8" 
d="M612 856q40 46 60 108t20 138q0 113 -46.5 177t-127.5 64q-74 0 -120 -48t-46 -126q0 -83 62.5 -158t197.5 -155zM360 655q-143 85 -207.5 177t-64.5 210q0 159 126 264t321 105q177 0 288 -84.5t111 -216.5q0 -105 -63 -173.5t-205 -117.5q157 -100 224.5 -199
t67.5 -225q0 -196 -128 -311t-347 -115q-187 0 -303.5 95.5t-116.5 246.5q0 125 71 207t226 137zM418 621q-52 -50 -81.5 -131.5t-29.5 -172.5q0 -128 54 -203t145 -75q74 0 122 58t48 151q0 115 -63 205.5t-195 167.5z" />
    <glyph glyph-name="nine" unicode="9" 
d="M74 -31v58q210 32 348 168t188 362q-48 -18 -93.5 -27.5t-86.5 -9.5q-159 0 -260.5 115t-101.5 297q0 209 124.5 343t317.5 134q204 0 332.5 -158t128.5 -413q0 -367 -240 -599.5t-657 -269.5zM635 641q9 55 13.5 118t4.5 134q0 232 -37.5 343.5t-115.5 111.5
q-67 0 -95 -63t-28 -224q0 -251 38.5 -350t131.5 -99q27 0 47.5 7t40.5 22z" />
    <glyph glyph-name="colon" unicode=":" horiz-adv-x="559" 
d="M92 795q0 74 48 124t120 50q79 0 126.5 -47t47.5 -123q0 -77 -47 -125.5t-123 -48.5t-124 47.5t-48 122.5zM92 141q0 74 48 124t120 50q79 0 126.5 -46.5t47.5 -123.5q0 -78 -46.5 -126t-123.5 -48q-79 0 -125.5 46.5t-46.5 123.5z" />
    <glyph glyph-name="semicolon" unicode=";" horiz-adv-x="559" 
d="M125 -387l-31 51q119 81 171 145.5t52 129.5q0 21 -7.5 29.5t-26.5 8.5q-6 0 -21.5 -1t-23.5 -1q-65 0 -105.5 44t-40.5 114q0 80 47 129t123 49q86 0 140.5 -66t54.5 -173q0 -137 -82.5 -250.5t-249.5 -208.5zM92 795q0 74 48 124t120 50q79 0 126.5 -47t47.5 -123
q0 -77 -47 -125.5t-123 -48.5t-124 47.5t-48 122.5z" />
    <glyph glyph-name="less" unicode="&#x3c;" horiz-adv-x="1706" 
d="M1442 1194v-219l-893 -365l893 -364v-219l-1178 485v199z" />
    <glyph glyph-name="equal" unicode="=" horiz-adv-x="1706" 
d="M254 496h1198v-199h-1198v199zM254 926h1198v-199h-1198v199z" />
    <glyph glyph-name="greater" unicode="&#x3e;" horiz-adv-x="1706" 
d="M264 1194l1178 -483v-199l-1178 -485v219l895 364l-895 365v219z" />
    <glyph glyph-name="question" unicode="?" horiz-adv-x="995" 
d="M422 475v98q0 41 9.5 79t37.5 93q4 9 13 27q81 166 81 320q0 133 -41.5 198.5t-126.5 65.5q-52 0 -86.5 -22.5t-34.5 -53.5q0 -19 38 -74.5t38 -107.5q0 -60 -37 -95.5t-100 -35.5q-62 0 -100.5 43t-38.5 112q0 134 108 217.5t287 83.5q180 0 290.5 -92t110.5 -241
q0 -61 -17.5 -113.5t-53.5 -99.5q-52 -68 -179 -143q-37 -22 -55 -34q-42 -28 -60 -62t-18 -87v-76h-65zM279 139q0 73 50.5 123.5t123.5 50.5q72 0 122 -50t50 -124q0 -72 -50.5 -123t-121.5 -51q-73 0 -123.5 50.5t-50.5 123.5z" />
    <glyph glyph-name="at" unicode="@" horiz-adv-x="2019" 
d="M1176 319q-62 -100 -134.5 -148t-160.5 -48q-142 0 -222.5 91t-80.5 251q0 114 50 221.5t144 196.5q69 64 148 97.5t161 33.5q96 0 150.5 -45t71.5 -138l49 164h190l-174 -618l-2 -7q-14 -58 -14 -87q0 -47 20.5 -74t54.5 -27q33 0 85 25t98 63q103 88 158 217t55 285
q0 275 -188.5 446t-489.5 171q-138 0 -262 -38t-228 -112q-173 -121 -266.5 -308.5t-93.5 -416.5q0 -335 210.5 -532t565.5 -197q166 0 319.5 50.5t307.5 156.5l39 -51q-151 -113 -318 -169.5t-348 -56.5q-187 0 -347.5 46t-277.5 133q-151 112 -232 277.5t-81 363.5
q0 155 52 298.5t153 264.5q145 174 346.5 267t435.5 93q349 0 558.5 -189t209.5 -503q0 -161 -59 -299.5t-170 -239.5q-59 -53 -126.5 -80.5t-137.5 -27.5q-98 0 -155 52t-64 148zM1118 948q-62 0 -112.5 -44.5t-100.5 -143.5q-57 -114 -87 -215t-30 -183q0 -79 34.5 -125.5
t92.5 -46.5q64 0 124.5 62t115.5 182q40 92 63 185.5t23 162.5q0 80 -32 123t-91 43z" />
    <glyph glyph-name="A" unicode="A" horiz-adv-x="1331" 
d="M-27 55q57 0 97 38.5t77 129.5l482 1198h55l487 -1157q57 -133 92.5 -171t88.5 -38v-55h-654l1 55q86 2 125.5 22t39.5 62q0 13 -6.5 36t-26.5 73l-61 155h-455l-61 -149q-13 -31 -20 -59t-7 -48q0 -47 36 -69.5t114 -22.5h12v-55h-416v55zM346 489h391l-198 484z" />
    <glyph glyph-name="B" unicode="B" horiz-adv-x="1350" 
d="M49 0v53q103 5 140.5 45.5t37.5 151.5v874q0 130 -37 171.5t-143 41.5v52h625q264 0 400 -81.5t136 -238.5q0 -127 -82.5 -205t-251.5 -110q203 -39 302.5 -126.5t99.5 -226.5q0 -189 -145.5 -295t-405.5 -106h-676zM555 705v-467q0 -106 25 -135t96 -29q130 0 186 72.5
t56 244.5t-72.5 244t-243.5 72q-7 0 -23 -1t-24 -1zM555 768h18q165 0 230 63t65 222q0 141 -50 205.5t-159 64.5q-61 0 -82.5 -23.5t-21.5 -107.5v-424z" />
    <glyph glyph-name="C" unicode="C" horiz-adv-x="1427" 
d="M1364 270q-106 -148 -254.5 -225.5t-327.5 -77.5q-149 0 -276.5 52t-226.5 153q-102 103 -150.5 231.5t-48.5 292.5q0 152 52.5 286.5t150.5 234.5q99 101 226.5 151.5t281.5 50.5q118 0 246 -46t145 -46q36 0 60.5 23.5t35.5 68.5h53v-479h-51q-74 197 -197 304.5
t-274 107.5q-186 0 -278.5 -165.5t-92.5 -496.5q0 -306 103.5 -462t306.5 -156q128 0 247 65t212 187z" />
    <glyph glyph-name="D" unicode="D" horiz-adv-x="1511" 
d="M555 219q0 -91 25 -118t98 -27q198 0 294.5 153.5t96.5 470.5q0 306 -99 464.5t-290 158.5q-75 0 -100 -27.5t-25 -119.5v-955zM61 0v53q97 5 130.5 38t33.5 136v914q0 117 -37 155.5t-143 41.5v51h631q363 0 557 -179.5t194 -515.5q0 -344 -183.5 -519t-547.5 -175h-635
z" />
    <glyph glyph-name="E" unicode="E" horiz-adv-x="1348" 
d="M43 0v51q107 0 146.5 39t39.5 148v886q0 129 -37.5 171t-142.5 42v52h1168v-414h-48q-20 182 -126.5 260t-335.5 78q-102 0 -126 -23t-24 -106v-434q6 0 18.5 -1t18.5 -1q129 0 195 70t90 235h49v-693h-49q-16 176 -85 247t-223 71h-14v-455q0 -90 26.5 -114.5
t118.5 -24.5q223 0 350 81.5t201 270.5h58l-84 -436h-1184z" />
    <glyph glyph-name="F" unicode="F" horiz-adv-x="1233" 
d="M47 0v53q104 6 142 48.5t38 154.5v887q0 109 -37 146.5t-147 47.5v52h1157v-414h-49q-31 187 -125.5 263.5t-298.5 76.5h-39q-92 0 -112.5 -19.5t-20.5 -81.5v-460h25q133 0 200.5 71t85.5 232h56v-697h-54q-15 172 -83 247t-205 75h-25v-436q0 -114 45.5 -152.5
t181.5 -40.5v-53h-735z" />
    <glyph glyph-name="G" unicode="G" horiz-adv-x="1548" 
d="M1360 88q-133 -59 -270 -89t-273 -30q-333 0 -533 199t-200 530q0 146 48.5 278.5t135.5 225.5q99 105 232 161t284 56q127 0 259 -45t139 -45q32 0 53 19t43 71h55v-481h-53q-72 194 -195.5 304t-269.5 110q-184 0 -277.5 -165.5t-93.5 -492.5q0 -313 103.5 -484
t292.5 -171q110 0 157 40.5t47 137.5v172q0 97 -40 129t-164 37v49h686v-48q-98 -4 -132 -36t-34 -129v-303z" />
    <glyph glyph-name="H" unicode="H" horiz-adv-x="1595" 
d="M47 0v53q102 3 141 44.5t39 148.5v909q0 99 -39 138.5t-139 44.5v51h688v-52q-109 -4 -145.5 -39t-36.5 -143v-391h487v391q0 108 -35.5 142.5t-146.5 39.5v52h686v-51q-103 -8 -139.5 -44.5t-36.5 -138.5v-909q0 -105 39.5 -147.5t136.5 -45.5v-53h-686v53
q109 5 145.5 42t36.5 151v428h-487v-428q0 -113 37.5 -150.5t144.5 -42.5v-53h-690z" />
    <glyph glyph-name="I" unicode="I" horiz-adv-x="795" 
d="M745 1389v-52q-114 -5 -151 -36.5t-37 -120.5v-944q0 -101 39.5 -137t153.5 -46v-53h-709v53q110 11 149 46.5t39 129.5v951q0 89 -38 121.5t-150 36.5v51h704z" />
    <glyph glyph-name="J" unicode="J" horiz-adv-x="1008" 
d="M958 1389v-52q-110 -6 -145 -44t-35 -175v-848q0 -230 -113.5 -349.5t-332.5 -119.5q-150 0 -246 76.5t-96 192.5q0 70 40.5 113.5t104.5 43.5q66 0 107 -40t41 -103q0 -47 -25 -89.5t-25 -53.5q0 -32 21.5 -48t64.5 -16q70 0 101 43.5t31 145.5v1052q0 128 -43 170
t-166 49v52h716z" />
    <glyph glyph-name="K" unicode="K" horiz-adv-x="1556" 
d="M557 713l422 426q40 40 62 76t22 61q0 32 -42.5 46.5t-133.5 14.5v52h594v-52q-104 0 -205.5 -55t-222.5 -180l-228 -234l588 -727q42 -51 78 -68.5t92 -19.5v-53h-727v53q95 0 128.5 11.5t33.5 39.5q0 16 -13.5 40t-39.5 57l-357 450l-51 -47v-358q0 -113 37.5 -150.5
t144.5 -42.5v-53h-690v53q103 4 141.5 45t38.5 148v909q0 98 -39.5 138.5t-138.5 44.5v51h688v-52q-109 -4 -145.5 -39t-36.5 -143v-442z" />
    <glyph glyph-name="L" unicode="L" horiz-adv-x="1300" 
d="M555 252q0 -114 29 -141t129 -27q221 0 340.5 87t193.5 300h56l-78 -471h-1178v53q102 3 141 44.5t39 148.5v909q0 99 -39 138.5t-139 44.5v51h713v-51q-125 -2 -166 -36.5t-41 -146.5v-903z" />
    <glyph glyph-name="M" unicode="M" horiz-adv-x="1933" 
d="M43 0v53q106 5 146 45.5t40 143.5v923q0 98 -37.5 131.5t-146.5 41.5v51h518l404 -955l403 955h512v-52q-99 -9 -136.5 -48t-37.5 -136v-893q0 -129 33.5 -166t138.5 -41v-53h-674v53q108 6 144 44.5t36 156.5v963l-507 -1217h-56l-501 1186v-942q0 -113 40.5 -152
t153.5 -39v-53h-473z" />
    <glyph glyph-name="N" unicode="N" horiz-adv-x="1505" 
d="M326 240q0 -111 36.5 -146t145.5 -41v-53h-453l1 53q104 4 139.5 39.5t35.5 147.5v944l-63 78q-3 3 -8 9q-50 61 -105 66v52h422l715 -875v637q0 111 -36.5 145.5t-145.5 40.5v52h452v-51q-103 -4 -139.5 -40.5t-36.5 -148.5v-1182h-57l-903 1100v-827z" />
    <glyph glyph-name="O" unicode="O" horiz-adv-x="1602" 
d="M84 694q0 163 62.5 305t181.5 248q95 84 219 129t262 45q142 0 266 -49t223 -143q109 -104 165.5 -240t56.5 -295q0 -163 -62.5 -304.5t-181.5 -248.5q-93 -83 -218 -128.5t-263 -45.5q-142 0 -267.5 49t-224.5 144q-107 102 -163 238.5t-56 295.5zM1157 694
q0 314 -95.5 486t-268.5 172q-174 0 -262.5 -165.5t-88.5 -492.5q0 -313 96 -485t269 -172q174 0 262 165t88 492z" />
    <glyph glyph-name="P" unicode="P" horiz-adv-x="1274" 
d="M651 1389q171 0 259.5 -16t156.5 -52q87 -48 133.5 -128.5t46.5 -180.5q0 -181 -134.5 -283t-375.5 -102h-182v-381q0 -113 37.5 -150.5t144.5 -42.5v-53h-690v53q102 3 141 44.5t39 148.5v909q0 99 -39 138.5t-139 44.5v51h602zM555 700h59q150 0 213.5 69.5t63.5 234.5
t-54.5 238t-177.5 73q-59 0 -81.5 -21.5t-22.5 -79.5v-514z" />
    <glyph glyph-name="Q" unicode="Q" horiz-adv-x="1602" 
d="M569 -2q-227 79 -356 264.5t-129 431.5q0 164 62 305t182 248q95 84 219 129t262 45q142 0 267 -49t224 -143q108 -103 164 -239t56 -296q0 -252 -135.5 -435.5t-376.5 -258.5q56 -121 144.5 -183.5t203.5 -62.5q32 0 69 6t74 17l10 -58q-88 -35 -177 -53t-179 -18
q-209 0 -355 87.5t-229 262.5zM1159 694q0 313 -96.5 485.5t-269.5 172.5q-174 0 -262.5 -165.5t-88.5 -492.5q0 -313 96.5 -485t270.5 -172t262 165t88 492z" />
    <glyph glyph-name="R" unicode="R" horiz-adv-x="1442" 
d="M662 1389q308 0 459 -91.5t151 -277.5q0 -125 -79 -211t-232 -127l356 -528q39 -60 69 -80.5t72 -20.5h6v-53h-432l-418 647h-59v-401q0 -113 37.5 -150.5t144.5 -42.5v-53h-690v53q102 3 141 44.5t39 148.5v909q0 99 -37.5 138t-140.5 45v51h613zM555 713h66
q158 0 231.5 75t73.5 236q0 144 -61 217.5t-181 73.5q-81 0 -105 -24.5t-24 -114.5v-463z" />
    <glyph glyph-name="S" unicode="S" horiz-adv-x="1190" 
d="M131 -33v514h59q48 -221 149 -328.5t261 -107.5q112 0 181 63t69 164q0 71 -39.5 123t-124.5 92l-190 95q-180 86 -262 188.5t-82 241.5q0 183 113.5 296t297.5 113q105 0 220.5 -32.5t129.5 -32.5q26 0 42.5 17t21.5 48h57v-448h-51q-44 172 -152.5 277.5t-238.5 105.5
q-101 0 -164 -55t-63 -142q0 -72 48 -127t162 -108l197 -93q176 -83 250 -181.5t74 -243.5q0 -199 -138.5 -318t-371.5 -119q-100 0 -207.5 34t-120.5 34q-31 0 -46.5 -15t-25.5 -55h-55z" />
    <glyph glyph-name="T" unicode="T" horiz-adv-x="1290" 
d="M803 246q0 -116 40 -153.5t156 -39.5v-53h-718v53q110 0 152 41t42 152v1075h-16q-163 0 -258.5 -91t-112.5 -261h-55v420h1218v-422h-51q-17 175 -113 264.5t-268 89.5h-16v-1075z" />
    <glyph glyph-name="U" unicode="U" horiz-adv-x="1501" 
d="M223 1155q0 99 -39 138.5t-139 44.5v51h688v-52q-109 -4 -145.5 -39t-36.5 -143v-655q0 -246 64 -339t223 -93q179 0 268.5 104t89.5 313v668q0 102 -40.5 140t-154.5 44v52h445v-52q-90 -10 -124 -49t-34 -135v-600q0 -159 -14.5 -233t-48.5 -134q-62 -110 -182 -167.5
t-287 -57.5q-276 0 -404.5 123.5t-128.5 388.5v682z" />
    <glyph glyph-name="V" unicode="V" horiz-adv-x="1305" 
d="M-43 1338v51h686v-52q-96 0 -137 -20.5t-41 -67.5q0 -16 6 -37.5t21 -58.5l296 -717l273 715q10 28 15 53t5 43q0 48 -38 68.5t-131 21.5l-1 52h437v-52q-65 0 -103.5 -33t-79.5 -137l-465 -1206h-53l-512 1200q-42 98 -80.5 133.5t-97.5 43.5z" />
    <glyph glyph-name="W" unicode="W" horiz-adv-x="1864" 
d="M520 -33l-422 1231q-29 82 -60 110t-85 30v51h598v-51q-69 -3 -96 -22t-27 -65q0 -21 6 -52t17 -62l229 -670l238 608l-46 142q-23 69 -58 92.5t-116 27.5v52h641v-52q-71 0 -106 -20t-35 -62q0 -14 4.5 -33t14.5 -45l229 -671l203 621q1 4 4 14q20 66 20 98
q0 51 -31.5 73.5t-107.5 25.5v51h369v-52q-52 -9 -85 -48t-65 -132l-393 -1190h-55l-342 975l-383 -975h-60z" />
    <glyph glyph-name="X" unicode="X" horiz-adv-x="1436" 
d="M35 0v53q64 0 125 38.5t114 111.5l316 432l-352 543q-61 91 -102.5 125t-86.5 34h-6v52h700v-52h-30q-66 0 -99.5 -18t-33.5 -53q0 -15 7.5 -34t26.5 -48l193 -301l174 256q24 35 38.5 69t14.5 54q0 37 -34 55.5t-107 20.5v51h504v-52h-11q-83 0 -153.5 -46.5
t-145.5 -151.5l-231 -332l404 -633q45 -69 77.5 -95t69.5 -26h8v-53h-688v53h14q76 0 110 17t34 55q0 21 -12 50.5t-35 66.5l-199 315l-219 -311q-19 -27 -30 -57t-11 -52q0 -43 37 -63.5t114 -20.5v-53h-495z" />
    <glyph glyph-name="Y" unicode="Y" horiz-adv-x="1298" 
d="M817 246q0 -113 37.5 -150.5t144.5 -42.5v-53h-690v53q103 4 141.5 45t38.5 148v299l-348 635q-49 89 -86.5 118.5t-95.5 37.5v53h672v-54h-15q-71 0 -106 -16t-35 -49q0 -15 6.5 -34.5t18.5 -41.5l258 -506l258 428q23 39 35 71t12 56q0 45 -39.5 68.5t-114.5 23.5h-10
v54h440v-54q-48 -4 -88 -36.5t-84 -104.5l-350 -573v-375z" />
    <glyph glyph-name="Z" unicode="Z" horiz-adv-x="1348" 
d="M61 0v33l781 1278h-189q-206 0 -308 -76.5t-159 -269.5h-51l39 424h1065v-37l-772 -1264h262q213 0 337 100t175 312h51l-51 -500h-1180z" />
    <glyph glyph-name="bracketleft" unicode="[" horiz-adv-x="883" 
d="M295 -303v1692h483v-68h-141q-67 0 -93 -23.5t-26 -85.5v-1331q0 -73 22.5 -95t94.5 -22h143v-67h-483z" />
    <glyph glyph-name="backslash" unicode="\" horiz-adv-x="551" 
d="M109 1421l466 -1611h-112l-467 1611h113z" />
    <glyph glyph-name="bracketright" unicode="]" horiz-adv-x="883" 
d="M586 1389v-1692h-484v67h142q68 0 94.5 24t26.5 85v1331q0 72 -23.5 94.5t-95.5 22.5h-144v68h484z" />
    <glyph glyph-name="asciicircum" unicode="^" horiz-adv-x="2048" 
d="M905 1462h236l491 -565h-112l-498 373l-498 -373h-112z" />
    <glyph glyph-name="underscore" unicode="_" 
d="M0 -279h1024v-204h-1024v204z" />
    <glyph glyph-name="grave" unicode="`" 
d="M707 1081h-91l-313 166q-56 30 -75 53t-19 56q0 40 25 65t65 25q30 0 61.5 -19t73.5 -63z" />
    <glyph glyph-name="a" unicode="a" horiz-adv-x="1049" 
d="M606 193v323q-122 -29 -184 -95t-62 -165q0 -79 24.5 -116.5t76.5 -37.5q32 0 72.5 25t72.5 66zM610 106q-70 -65 -151 -99t-168 -34q-104 0 -167 60.5t-63 159.5q0 126 124 215t421 172v155q0 86 -37.5 126t-117.5 40q-65 0 -99.5 -17t-34.5 -48q0 -15 29 -54.5
t29 -76.5q0 -54 -39 -88.5t-100 -34.5q-63 0 -99.5 37.5t-36.5 101.5q0 109 109.5 179.5t284.5 70.5q213 0 306 -77t93 -253v-451q0 -57 7.5 -72.5t27.5 -15.5q9 0 20.5 6t28.5 19l27 -43q-51 -56 -107 -83.5t-121 -27.5q-76 0 -118 33.5t-48 99.5z" />
    <glyph glyph-name="b" unicode="b" horiz-adv-x="1100" 
d="M422 209q0 -81 34.5 -123.5t100.5 -42.5q102 0 146.5 102t44.5 342q0 191 -45 279t-142 88q-49 0 -88 -32.5t-51 -84.5v-528zM131 -35v1219q0 99 -22 124.5t-84 30.5v50h397v-535q51 58 114 87.5t138 29.5q161 0 264.5 -129.5t103.5 -335.5q0 -236 -129 -386.5
t-327 -150.5q-71 0 -135.5 28.5t-131.5 88.5l-157 -121h-31z" />
    <glyph glyph-name="c" unicode="c" horiz-adv-x="895" 
d="M868 184q-75 -106 -174.5 -160.5t-218.5 -54.5q-176 0 -296 139.5t-120 348.5q0 223 135 369.5t338 146.5q141 0 227.5 -62.5t86.5 -162.5q0 -56 -34.5 -90.5t-90.5 -34.5q-62 0 -92.5 35t-30.5 106q0 12 2 33.5t2 29.5q0 38 -22 58t-64 20q-84 0 -129 -86t-45 -248
q0 -215 74 -334.5t207 -119.5q57 0 105 24t99 78z" />
    <glyph glyph-name="d" unicode="d" horiz-adv-x="1128" 
d="M680 -31v150q-41 -73 -106.5 -111.5t-147.5 -38.5q-159 0 -263 134.5t-104 345.5q0 231 108.5 376.5t276.5 145.5q71 0 131 -30t105 -87v369q0 62 -32.5 88.5t-110.5 27.5v50h436v-1160q0 -82 21.5 -109.5t82.5 -35.5v-51q-80 0 -176 -15.5t-221 -48.5zM680 231v506
q-9 52 -51.5 85.5t-98.5 33.5q-90 0 -131 -91t-41 -298q0 -200 39.5 -290.5t124.5 -90.5q49 0 94 40.5t64 104.5z" />
    <glyph glyph-name="e" unicode="e" horiz-adv-x="918" 
d="M354 586h260q0 12 1 35t1 34q0 136 -29 193t-95 57q-69 0 -103.5 -70.5t-34.5 -211.5v-37zM868 221q-75 -127 -174.5 -189.5t-224.5 -62.5q-182 0 -296 141t-114 369q0 217 119 354.5t301 137.5q179 0 281 -119.5t102 -329.5v-16h-505q1 -185 65 -281t186 -96
q61 0 115 33.5t100 99.5z" />
    <glyph glyph-name="f" unicode="f" horiz-adv-x="651" 
d="M45 0v49q70 6 92.5 31.5t22.5 142.5v621h-111v102h111v131q0 160 98 250t272 90q121 0 197 -56t76 -142q0 -61 -33 -98.5t-86 -37.5q-56 0 -88.5 29.5t-32.5 79.5q0 41 19.5 80t19.5 47q0 17 -13 25t-40 8q-56 0 -77 -32t-21 -130v-244h170v-102h-170v-621
q0 -116 30 -144t127 -30v-49h-563z" />
    <glyph glyph-name="g" unicode="g" horiz-adv-x="997" 
d="M967 928v-111h-150q36 -45 54 -94t18 -102q0 -135 -101.5 -221.5t-263.5 -86.5q-6 0 -36.5 2t-55.5 2q-54 0 -89.5 -28.5t-35.5 -71.5q0 -36 29 -51.5t94 -15.5h105q238 0 333 -60t95 -203q0 -150 -135.5 -232.5t-383.5 -82.5q-187 0 -294 54t-107 147q0 52 40.5 88
t125.5 61q-71 33 -104 74.5t-33 95.5q0 72 57 131t178 113q-120 45 -179.5 123t-59.5 188q0 140 115.5 232t295.5 92q63 0 120 -11t112 -32h256zM295 -104q-36 -24 -54 -53.5t-18 -63.5q0 -61 71.5 -97t194.5 -36q154 0 234 39t80 114q0 51 -41.5 74t-136.5 23h-330z
M348 643q0 -140 31 -202t100 -62t99 61t30 203q0 143 -29.5 202.5t-99.5 59.5t-100.5 -60t-30.5 -202z" />
    <glyph glyph-name="h" unicode="h" horiz-adv-x="1161" 
d="M55 0l1 49q58 2 81 27.5t23 93.5v1047q0 67 -22.5 93.5t-80.5 30.5v48h394v-576q55 77 129.5 117.5t160.5 40.5q135 0 201 -80.5t66 -245.5v-475q0 -66 22 -92.5t78 -28.5v-49h-492l1 49q55 2 77.5 29t22.5 92v492q0 95 -22 130t-77 35q-48 0 -90.5 -28t-76.5 -82v-547
q0 -66 21.5 -92.5t76.5 -28.5v-49h-494z" />
    <glyph glyph-name="i" unicode="i" horiz-adv-x="604" 
d="M453 170q0 -68 21 -93t75 -28v-49h-494l1 49q58 3 81 28.5t23 92.5v598q0 80 -20 102t-78 25l1 51h390v-776zM154 1257q0 66 44 111t109 45q64 0 109 -45.5t45 -110.5q0 -64 -44.5 -108.5t-109.5 -44.5q-64 0 -108.5 44.5t-44.5 108.5z" />
    <glyph glyph-name="j" unicode="j" horiz-adv-x="639" 
d="M195 -158v920q0 77 -27 104t-100 31v49h417v-1005q0 -175 -97.5 -269t-278.5 -94q-120 0 -199.5 62t-79.5 153q0 57 34 91t91 34t91 -31t34 -82q0 -31 -23.5 -66.5t-23.5 -45.5q0 -20 16 -31.5t45 -11.5q55 0 78 40t23 152zM170 1262q0 64 44.5 109.5t109.5 45.5
q64 0 109.5 -45.5t45.5 -109.5q0 -65 -45.5 -109.5t-109.5 -44.5q-65 0 -109.5 44.5t-44.5 109.5z" />
    <glyph glyph-name="k" unicode="k" horiz-adv-x="1094" 
d="M451 170q0 -67 21.5 -92.5t76.5 -28.5v-49h-496l1 49q59 3 82.5 29t23.5 92v1042q0 78 -20 101t-78 26l1 50h388v-875l241 242q27 25 39 47t12 45q0 22 -28 34.5t-78 12.5h-10v51h426l-1 -51q-60 -3 -110.5 -26.5t-103.5 -75.5l-160 -156l377 -533q21 -29 42.5 -42
t49.5 -13v-49h-504v49q49 0 67.5 10.5t18.5 36.5q0 10 -6 24.5t-16 29.5l-211 299l-45 -39v-240z" />
    <glyph glyph-name="l" unicode="l" horiz-adv-x="608" 
d="M453 170q0 -68 21 -93t75 -28v-49h-494l1 49q58 3 81 28.5t23 92.5v1042q0 78 -21 102t-77 25l-1 50h392v-1219z" />
    <glyph glyph-name="m" unicode="m" horiz-adv-x="1690" 
d="M55 0l1 49q58 2 81 27.5t23 93.5v602q0 67 -22.5 94t-80.5 31v49h389v-139q56 78 128 121t149 43q100 0 166 -45.5t88 -128.5q58 86 133 130t164 44q131 0 196.5 -81t65.5 -245v-475q0 -66 22 -92.5t76 -28.5v-49h-483v49q54 2 76 29t22 92v492q0 95 -21.5 130t-76.5 35
q-46 0 -86 -25.5t-76 -78.5v-553q0 -66 21.5 -92.5t74.5 -28.5v-49h-477l1 49q53 2 75.5 29t22.5 92v492q0 94 -22.5 129.5t-76.5 35.5q-49 0 -89 -27.5t-73 -82.5v-547q0 -66 20.5 -91.5t73.5 -29.5l1 -49h-486z" />
    <glyph glyph-name="n" unicode="n" horiz-adv-x="1161" 
d="M55 0l1 49q58 2 81 27.5t23 93.5v602q0 66 -23 93.5t-80 31.5v49h394v-131q56 77 130 116.5t160 39.5q135 0 201 -80.5t66 -245.5v-475q0 -66 22 -92.5t78 -28.5v-49h-492l1 49q55 2 77.5 29t22.5 92v492q0 95 -22 130t-77 35q-48 0 -90.5 -28t-76.5 -82v-547
q0 -66 21.5 -92.5t76.5 -28.5v-49h-494z" />
    <glyph glyph-name="o" unicode="o" horiz-adv-x="1026" 
d="M57 473q0 222 126.5 360t328.5 138t328.5 -138t126.5 -360t-126.5 -361t-326.5 -139t-328.5 140t-128.5 360zM356 475q0 -257 35 -346.5t123 -89.5t122 87.5t34 346.5q0 260 -34.5 349t-121.5 89q-88 0 -123 -89.5t-35 -346.5z" />
    <glyph glyph-name="p" unicode="p" horiz-adv-x="1133" 
d="M451 211q22 -59 60 -91t85 -32q89 0 131.5 94t42.5 291q0 201 -38.5 288t-125.5 87q-47 0 -85.5 -32.5t-69.5 -98.5v-506zM53 -424l1 47q61 3 83.5 34t22.5 148v936q0 98 -20 125t-80 33l-1 47h377v-145q44 82 114 127t152 45q160 0 262.5 -134.5t102.5 -349.5
q0 -229 -106 -373.5t-269 -144.5q-72 0 -133.5 33t-107.5 96v-276q0 -124 30.5 -159.5t120.5 -39.5v-49h-549z" />
    <glyph glyph-name="q" unicode="q" horiz-adv-x="1110" 
d="M682 735q0 81 -34.5 122.5t-100.5 41.5q-100 0 -145.5 -100.5t-45.5 -323.5q0 -203 45 -294t144 -91q49 0 87 31.5t50 83.5v530zM975 977v-1231q0 -69 22 -94t82 -27v-49h-547l1 49q87 3 118 28t31 93v342q-51 -59 -113 -88t-137 -29q-161 0 -266 130.5t-105 336.5
q0 235 129 385t328 150q72 0 136.5 -28t129.5 -87l158 119h33z" />
    <glyph glyph-name="r" unicode="r" horiz-adv-x="877" 
d="M55 0l1 49q58 3 81 28.5t23 92.5v598q0 78 -20 101t-78 26l1 51h381v-178q51 94 123 148.5t144 54.5q80 0 126 -43t46 -117q0 -60 -35 -96.5t-92 -36.5q-35 0 -59.5 10t-39.5 31q-6 8 -16 25q-29 49 -66 49q-48 0 -84 -60t-36 -147v-416q0 -67 30.5 -92.5t116.5 -28.5
v-49h-547z" />
    <glyph glyph-name="s" unicode="s" horiz-adv-x="879" 
d="M109 -27v349h53q29 -127 101.5 -200t164.5 -73q75 0 116.5 34t41.5 95q0 46 -26.5 79.5t-84.5 61.5l-149 76q-110 55 -161.5 122t-51.5 155q0 133 88 217t229 84q54 0 126 -21.5t93 -21.5q17 0 30.5 11t22.5 32h41v-297h-47q-36 110 -98.5 168.5t-142.5 58.5
q-63 0 -99.5 -30t-36.5 -82q0 -45 29 -78.5t98 -67.5l138 -67q110 -56 155 -121.5t45 -167.5q0 -145 -88 -230.5t-235 -85.5q-69 0 -146.5 27t-91.5 27q-24 -1 -41 -14.5t-26 -38.5z" />
    <glyph glyph-name="t" unicode="t" horiz-adv-x="696" 
d="M678 201q-46 -113 -122.5 -171.5t-178.5 -58.5q-119 0 -174.5 59.5t-55.5 186.5v633h-86v63q122 116 205.5 211t126.5 168h47v-346h193v-96h-193v-600q0 -68 17 -97.5t55 -29.5q34 0 63 26t54 78z" />
    <glyph glyph-name="u" unicode="u" horiz-adv-x="1143" 
d="M696 123q-52 -72 -130 -112t-167 -40q-134 0 -197 78.5t-63 247.5v459q0 79 -22 108t-82 33v49h397v-665q0 -99 24 -134.5t83 -35.5q43 0 83.5 23t73.5 67v555q0 82 -24.5 110.5t-93.5 30.5v49h409v-733q0 -70 22.5 -93.5t88.5 -29.5l-1 -51q-86 -2 -186 -19t-215 -51
v154z" />
    <glyph glyph-name="v" unicode="v" horiz-adv-x="934" 
d="M434 -29l-317 785q-35 89 -59.5 112.5t-65.5 26.5v51h508v-49q-5 0 -12.5 1t-10.5 1q-41 0 -62.5 -14.5t-21.5 -42.5q0 -13 15 -53q2 -6 4 -11l151 -405l156 397q9 22 12.5 35t3.5 24q0 35 -28 51.5t-86 16.5v49h309v-47q-44 -8 -72.5 -38.5t-64.5 -119.5l-306 -770h-53z
" />
    <glyph glyph-name="w" unicode="w" horiz-adv-x="1325" 
d="M373 -29l-322 836q-17 44 -35.5 63t-47.5 25l-1 51h455v-51q-44 -5 -59 -16t-15 -37q0 -13 4 -31t13 -41l143 -383l135 330l-31 94q-17 54 -36.5 69.5t-63.5 19.5v46h473v-51q-47 -2 -65.5 -14t-18.5 -39q0 -17 2.5 -33t5.5 -25l115 -354l141 350q7 17 11 33.5t4 26.5
q0 25 -22 39t-73 20v47h273l-1 -47q-33 -3 -54 -24.5t-48 -88.5l-327 -815h-47l-201 629l-254 -629h-53z" />
    <glyph glyph-name="x" unicode="x" horiz-adv-x="973" 
d="M14 0v45q48 10 90.5 41t83.5 86l187 244l-244 387q-31 49 -58 69.5t-60 22.5l-1 51h502v-49q-45 0 -65.5 -10t-20.5 -33q0 -16 22 -53q3 -6 5 -9l104 -165l123 155q17 20 25 37t8 31q-1 24 -21.5 34t-80.5 13l-1 49h336v-43q-45 -10 -86.5 -41t-87.5 -88l-170 -213
l285 -450q25 -40 42.5 -52t41.5 -12v-47h-500v49q53 2 72.5 11.5t19.5 31.5q0 17 -9 38.5t-28 49.5l-108 168l-123 -162q-20 -25 -29.5 -45.5t-9.5 -36.5q0 -30 22 -44.5t68 -14.5h10v-45h-344z" />
    <glyph glyph-name="y" unicode="y" horiz-adv-x="915" 
d="M-14 895v51h508l-1 -51q-60 -2 -81 -14t-21 -43q0 -11 3.5 -23.5t11.5 -32.5l159 -420l138 374q11 32 16.5 57t5.5 43q0 32 -24 45.5t-83 13.5v51h295v-51q-36 0 -61.5 -30.5t-60.5 -125.5l-297 -813q-78 -212 -149 -283t-185 -71q-81 0 -130.5 47t-49.5 125
q0 57 36.5 96t92.5 39q54 0 86 -30t32 -80q0 -8 -1 -19.5t-1 -15.5q0 -15 10.5 -25t26.5 -10q43 0 91.5 81t74.5 206l-317 778q-1 1 -2 3q-55 128 -119 128h-4z" />
    <glyph glyph-name="z" unicode="z" horiz-adv-x="893" 
d="M39 0v43l473 834h-121q-114 0 -172 -49t-86 -169h-53l16 287h742v-59l-455 -811h82q140 0 213.5 57t114.5 195h49l-25 -328h-778z" />
    <glyph glyph-name="braceleft" unicode="{" 
d="M852 1516v-61q-121 -3 -165 -55t-44 -210v-133q0 -225 -53.5 -307t-196.5 -115q143 -32 196.5 -113t53.5 -307v-135q0 -158 44 -210t165 -55v-59q-235 0 -320.5 72.5t-85.5 273.5v193q0 165 -56 226.5t-212 76.5v76q156 15 212 76.5t56 226.5v192q0 201 85.5 274
t320.5 73z" />
    <glyph glyph-name="bar" unicode="|" 
d="M410 1565h206v-2048h-206v2048z" />
    <glyph glyph-name="braceright" unicode="}" 
d="M172 1516q236 0 322 -73t86 -274v-192q0 -165 56 -226.5t212 -76.5v-76q-156 -15 -212 -76.5t-56 -226.5v-193q0 -198 -85 -272t-311 -74h-12v59q119 2 164 55t45 210v135q0 226 53.5 307t196.5 113q-143 33 -196.5 115t-53.5 307v133q0 156 -45 209.5t-164 55.5v61z" />
    <glyph glyph-name="asciitilde" unicode="~" horiz-adv-x="1706" 
d="M1530 803v-221q-104 -71 -196.5 -104.5t-182.5 -33.5q-46 0 -92 8t-92 23q-24 8 -71 25q-219 75 -333 75q-85 0 -177.5 -37.5t-207.5 -119.5v221q107 72 204 107.5t183 35.5q117 0 291 -58q3 -1 4 -1q18 -6 55 -19q155 -55 240 -55t175 37t200 117z" />
    <glyph glyph-name="nonbreakingspace" unicode="&#xa0;" 
 />
    <glyph glyph-name="exclamdown" unicode="&#xa1;" horiz-adv-x="668" 
d="M358 924q9 -209 75.5 -452.5t66.5 -285.5q0 -106 -43.5 -162.5t-124.5 -56.5q-77 0 -121.5 52.5t-44.5 144.5q0 71 65 321.5t68 437.5zM162 1249q0 72 50 122t122 50t122 -50t50 -122t-50 -122t-122 -50t-122 50t-50 122z" />
    <glyph glyph-name="cent" unicode="&#xa2;" 
d="M274 -287l103 295q-128 61 -195 179.5t-67 283.5q0 216 136 358t343 142q30 0 58 -3.5t57 -11.5l90 248h78l-97 -272q61 -34 94 -81t33 -101q0 -59 -34 -94t-91 -35q-32 0 -55 10.5t-39 34.5l-170 -480q31 -35 71 -53t87 -18q54 0 109 28t98 78l39 -35
q-62 -101 -161.5 -158t-215.5 -57q-33 0 -56 3t-43 10l-96 -271h-76zM465 260l190 540q3 7 3.5 12.5t0.5 18.5q0 36 -24 56t-66 20q-79 0 -123.5 -93.5t-44.5 -262.5q0 -78 16 -151.5t48 -139.5z" />
    <glyph glyph-name="sterling" unicode="&#xa3;" 
d="M109 627v157h163q-13 72 -19.5 130.5t-6.5 109.5q0 170 114.5 278.5t294.5 108.5q140 0 225 -65t85 -170q0 -68 -39 -108t-105 -40q-59 0 -93 36t-34 99q0 13 2 46.5t2 54.5q0 36 -23.5 60t-60.5 24q-53 0 -81.5 -39t-28.5 -111q0 -43 29.5 -181t41.5 -233h234v-157
l-221 -1q3 -23 4.5 -44t1.5 -39q0 -65 -11 -129.5t-32 -126.5q55 -25 105 -37t94 -12q86 0 135 36.5t61 110.5h43q0 -196 -68.5 -304t-193.5 -108q-66 0 -123 28.5t-125 96.5q-45 -63 -103.5 -94t-133.5 -31q-87 0 -137 45.5t-50 122.5q0 92 62 149.5t162 57.5q32 0 59.5 -4
t52.5 -12v12q0 49 -34 143.5t-44 139.5h-204zM395 174q-25 34 -63.5 53t-83.5 19q-50 0 -80.5 -30t-30.5 -79q0 -44 28.5 -71t76.5 -27q60 0 102 37t51 98z" />
    <glyph glyph-name="currency" unicode="&#xa4;" horiz-adv-x="1241" 
d="M623 1161q-113 0 -195 -82t-82 -194q0 -114 81 -194.5t196 -80.5q113 0 194.5 80.5t81.5 194.5q0 112 -81.5 194t-194.5 82zM172 1438l205 -203q54 39 114 58.5t130 19.5t131.5 -19.5t115.5 -58.5l203 203l105 -107l-203 -205q38 -53 57 -113.5t19 -127.5t-19 -127
t-57 -115l203 -205l-105 -104l-203 203q-54 -40 -115 -59t-130 -19q-72 0 -132.5 19t-113.5 59l-205 -203l-104 104l202 205q-38 54 -56.5 113.5t-18.5 128.5q0 67 18.5 127.5t56.5 113.5l-202 205z" />
    <glyph glyph-name="yen" unicode="&#xa5;" horiz-adv-x="1329" 
d="M338 0v53q101 3 140.5 44.5t39.5 148.5v299l-8 14h-485v84h444l-107 188h-337v84h292l-147 265q-48 87 -88 121t-90 34h-4v54h643v-52h-25q-68 0 -100.5 -16t-32.5 -49q0 -13 6.5 -34t18.5 -45l262 -509l258 430q23 38 35 71t12 58q0 46 -40.5 70t-117.5 24h-8v52h442
v-54q-48 -4 -88 -36.5t-86 -104.5l-170 -279h308v-84h-357l-119 -188h476v-84h-488v-313q0 -113 37.5 -150.5t144.5 -42.5v-53h-661z" />
    <glyph glyph-name="brokenbar" unicode="&#xa6;" 
d="M410 408h206v-758h-206v758zM410 1432h206v-758h-206v758z" />
    <glyph glyph-name="section" unicode="&#xa7;" 
d="M260 684q0 -48 32.5 -99t100.5 -110q110 -95 156 -123t80 -28q57 0 96 36t39 91q0 45 -29.5 93t-99.5 115q-85 81 -142 116.5t-102 35.5q-55 0 -93 -37.5t-38 -89.5zM646 266q95 -80 141.5 -153.5t46.5 -145.5q0 -114 -98.5 -184t-262.5 -70q-137 0 -224 61t-87 154
q0 62 37 98.5t98 36.5q49 0 82 -32t33 -80q0 -40 -32 -75t-32 -44q0 -28 35 -45.5t92 -17.5q82 0 128 37.5t46 103.5q0 48 -35 97.5t-165 160.5l-181 156q-89 77 -132.5 147t-43.5 137q0 109 78 179t209 77q-104 90 -146.5 157t-42.5 136q0 121 91.5 192.5t246.5 71.5
q132 0 215.5 -60.5t83.5 -154.5q0 -60 -34.5 -96.5t-92.5 -36.5q-52 0 -87 30t-35 75q0 37 31.5 75.5t31.5 46.5q0 27 -33.5 46.5t-81.5 19.5q-70 0 -111.5 -36.5t-41.5 -96.5q0 -54 39.5 -109.5t167.5 -165.5l178 -149q88 -75 131 -146.5t43 -146.5q0 -105 -77 -172.5
t-209 -77.5z" />
    <glyph glyph-name="dieresis" unicode="&#xa8;" 
d="M573 1247q0 48 36 83.5t85 35.5t84 -35t35 -84q0 -54 -33.5 -88.5t-85.5 -34.5q-51 0 -86 35.5t-35 87.5zM209 1247q0 48 36 83.5t85 35.5t84 -35t35 -84q0 -54 -33.5 -88.5t-85.5 -34.5q-51 0 -86 35.5t-35 87.5z" />
    <glyph glyph-name="copyright" unicode="&#xa9;" horiz-adv-x="1683" 
d="M1126 1102h45v-326h-47q-31 131 -100 202t-164 71q-118 0 -175.5 -90.5t-57.5 -274.5q0 -185 62.5 -281t182.5 -96q80 0 148.5 44t124.5 130l45 -28q-63 -107 -150.5 -161t-197.5 -54q-185 0 -308.5 122.5t-123.5 303.5q0 191 121 316.5t305 125.5q79 0 153 -33t80 -33
q24 0 37.5 15t19.5 47zM844 1309q-127 0 -241.5 -48t-203.5 -139q-89 -90 -135.5 -204t-46.5 -240q0 -128 46.5 -242t135.5 -203q90 -89 202 -135.5t241 -46.5q127 0 240 47t200 135q89 91 136.5 206t47.5 239q0 127 -47.5 244t-134.5 202q-87 88 -203 136.5t-237 48.5z
M844 1413q141 0 275.5 -56t238.5 -159q102 -102 159.5 -239.5t57.5 -280.5t-56.5 -277.5t-160.5 -240.5q-102 -104 -235 -158.5t-281 -54.5t-279 54t-237 159q-105 104 -160 237t-55 281t54.5 281.5t158.5 236.5q103 104 239 160.5t281 56.5z" />
    <glyph glyph-name="ordfeminine" unicode="&#xaa;" horiz-adv-x="786" 
d="M90 584h621v-105h-621v105zM446 1085q-83 -21 -124 -63.5t-41 -106.5q0 -50 15 -76t46 -26q25 0 54 16.5t50 42.5v213zM680 1184v-316q0 -37 3.5 -45t12.5 -8q4 0 11.5 3.5t27.5 17.5l31 -43q-42 -44 -86 -64t-96 -20q-58 0 -91.5 21t-42.5 62q-52 -41 -110 -62t-119 -21
q-83 0 -133.5 44t-50.5 115q0 92 92 155.5t317 123.5v102q0 57 -25.5 83t-80.5 26q-43 0 -67.5 -10.5t-24.5 -28.5q0 -7 21.5 -36t21.5 -60q0 -37 -32.5 -62.5t-80.5 -25.5q-50 0 -81 28t-31 72q0 83 83.5 134.5t221.5 51.5q164 0 236.5 -55.5t72.5 -181.5z" />
    <glyph glyph-name="guillemotleft" unicode="&#xab;" horiz-adv-x="1075" 
d="M43 473q139 108 301.5 248.5t183.5 140.5q14 0 21.5 -8t7.5 -23q0 -33 -54 -114.5t-186 -243.5q119 -145 179.5 -235.5t60.5 -124.5q0 -14 -7 -21.5t-20 -7.5q-23 0 -186.5 141t-300.5 248zM475 473q139 108 301.5 248.5t184.5 140.5q13 0 20.5 -8t7.5 -23
q0 -33 -54 -114.5t-185 -243.5q118 -145 178.5 -235.5t60.5 -124.5q0 -14 -7 -21.5t-19 -7.5q-24 0 -187.5 141t-300.5 248z" />
    <glyph glyph-name="logicalnot" unicode="&#xac;" horiz-adv-x="1706" 
d="M254 864h1198v-502h-199v306h-999v196z" />
    <glyph glyph-name="sfthyphen" unicode="&#xad;" horiz-adv-x="670" 
d="M88 350v246h494v-246h-494z" />
    <glyph glyph-name="registered" unicode="&#xae;" horiz-adv-x="1683" 
d="M760 723q7 -1 16 -1.5t27 -0.5q96 0 144 45t48 135q0 60 -43 103t-106 43q-44 0 -65 -16.5t-21 -49.5v-258zM465 1098h403q146 0 234 -55.5t88 -143.5q0 -86 -64.5 -134.5t-214.5 -74.5q95 -22 149 -69.5t70 -124.5q6 -25 10 -74q5 -84 46 -84q28 0 42.5 29.5t14.5 87.5
v12h51v-23q0 -88 -44 -134t-128 -46q-47 0 -82.5 14t-56.5 41q-28 40 -33 134q-2 45 -6 67q-14 79 -54 116.5t-112 37.5h-18v-246q0 -46 20 -65t78 -27v-51h-393v50q61 4 83.5 24t22.5 69v522q0 49 -22.5 69.5t-83.5 25.5v53zM844 1309q-126 0 -241.5 -48.5t-203.5 -138.5
q-89 -90 -135.5 -204t-46.5 -240q0 -128 46.5 -242t135.5 -203q90 -89 202 -135.5t241 -46.5q127 0 240 47t200 135q89 91 136.5 206t47.5 239q0 125 -48.5 243t-135.5 203q-88 88 -202.5 136.5t-235.5 48.5zM844 1413q145 0 284 -59.5t242 -165.5q98 -101 150.5 -236.5
t52.5 -285.5q0 -139 -61 -277t-171 -244q-99 -96 -227.5 -147t-271.5 -51q-110 0 -211.5 30.5t-190.5 90.5q-157 104 -243 263.5t-86 346.5q0 146 55 280t158 238q102 104 237.5 160.5t282.5 56.5z" />
    <glyph glyph-name="macron" unicode="&#xaf;" 
d="M236 1171v148h552v-148h-552z" />
    <glyph glyph-name="degree" unicode="&#xb0;" horiz-adv-x="674" 
d="M338 1335q-73 0 -124.5 -51t-51.5 -123q0 -74 51 -125t125 -51q72 0 123 52t51 124t-51 123t-123 51zM338 1464q126 0 214.5 -89.5t88.5 -215.5q0 -125 -89 -214t-216 -89q-126 0 -213.5 88t-87.5 215t88.5 216t214.5 89z" />
    <glyph glyph-name="plusminus" unicode="&#xb1;" horiz-adv-x="1706" 
d="M254 197h1198v-199h-1198v199zM752 1223h202v-326h498v-199h-498v-325h-202v325h-498v199h498v326z" />
    <glyph glyph-name="twosuperior" unicode="&#xb2;" horiz-adv-x="676" 
d="M16 553v35l105 106q158 158 214 246t56 164q0 73 -42 115.5t-113 42.5q-57 0 -99 -28.5t-63 -80.5h-35q31 113 112.5 179.5t186.5 66.5q109 0 173 -60t64 -163q0 -68 -35 -128.5t-165 -179.5l-162 -147h180q112 0 147.5 21t57.5 79h29l-56 -268h-555z" />
    <glyph glyph-name="threesuperior" unicode="&#xb3;" horiz-adv-x="676" 
d="M190 995v23q84 20 127 60t43 98q0 55 -35 89.5t-92 34.5q-52 0 -92 -23t-80 -77l-26 14q52 90 131 137.5t178 47.5q100 0 157.5 -43t57.5 -117q0 -46 -28 -88t-78 -72q79 -35 116 -87.5t37 -131.5q0 -81 -44 -150.5t-126 -115.5q-49 -28 -107 -42.5t-120 -14.5
q-92 0 -148.5 32t-56.5 84q0 33 25 53.5t65 20.5q29 0 54 -9.5t45 -27.5l20 -20q71 -70 117 -70q54 0 89.5 42t35.5 108q0 88 -68.5 151.5t-196.5 93.5z" />
    <glyph glyph-name="acute" unicode="&#xb4;" 
d="M317 1081l273 283q42 44 73.5 63t61.5 19q40 0 65 -25t25 -65q0 -33 -19 -56t-75 -53l-313 -166h-91z" />
    <glyph glyph-name="mu" unicode="&#xb5;" horiz-adv-x="1202" 
d="M178 209q-12 -95 -29 -252q-40 -381 -155 -381q-54 0 -84.5 30.5t-30.5 84.5q0 47 68 274t106 408l109 512h256l-99 -459q-11 -53 -16.5 -89t-5.5 -58q0 -59 30.5 -92t84.5 -33q71 0 116 53t68 166l109 512h256l-115 -533q-9 -41 -13 -66.5t-4 -43.5q0 -47 17.5 -67.5
t56.5 -20.5q40 0 66 18t45 59q8 19 21 50q27 69 55 69q15 0 23.5 -10t8.5 -29q0 -34 -16.5 -88.5t-42.5 -101.5q-41 -74 -99 -110t-137 -36q-85 0 -129.5 48t-54.5 151q-40 -106 -98.5 -152.5t-149.5 -46.5q-93 0 -149.5 61t-67.5 173z" />
    <glyph glyph-name="paragraph" unicode="&#xb6;" 
d="M983 1479v-111h-113v-1368h-151v1368h-158v-1368h-153v784q-167 6 -267 101t-100 245q0 158 107 253.5t284 95.5h551z" />
    <glyph glyph-name="glyph121" unicode="&#xb7;" horiz-adv-x="512" 
d="M84 696q0 74 49.5 124t124.5 50q71 0 119.5 -50.5t48.5 -125.5q0 -73 -48.5 -121.5t-123.5 -48.5t-122.5 48t-47.5 124z" />
    <glyph glyph-name="cedilla" unicode="&#xb8;" 
d="M262 -375l41 88q72 -39 130 -56t118 -17q40 0 63 21.5t23 59.5q0 43 -25.5 64.5t-74.5 21.5q-15 0 -30 -1.5t-32 -3.5v198h70v-112q16 2 32.5 3.5t32.5 2.5q86 0 136.5 -46t50.5 -124q0 -86 -60.5 -133.5t-169.5 -47.5q-54 0 -124 18.5t-181 63.5z" />
    <glyph glyph-name="onesuperior" unicode="&#xb9;" horiz-adv-x="676" 
d="M449 676q0 -52 35 -73.5t124 -23.5v-26h-526v26q90 2 126 23.5t36 73.5v520q0 41 -11 54.5t-40 13.5q-22 0 -48 -6.5t-57 -18.5v29l338 131h23v-723z" />
    <glyph glyph-name="ordmasculine" unicode="&#xba;" horiz-adv-x="770" 
d="M86 584h598v-105h-598v105zM385 1364q-60 0 -83 -59t-23 -238t23 -238t83 -59q61 0 85 60.5t24 236.5q0 173 -24.5 235t-84.5 62zM385 1421q154 0 252 -99.5t98 -256.5q0 -158 -97.5 -257t-252.5 -99q-154 0 -252 99.5t-98 256.5q0 158 97.5 257t252.5 99z" />
    <glyph glyph-name="guillemotright" unicode="&#xbb;" horiz-adv-x="1075" 
d="M1034 473q-137 -107 -301 -248t-186 -141q-14 0 -21.5 7.5t-7.5 21.5q0 34 55.5 118t184.5 242q-121 147 -180.5 236t-59.5 122q0 15 7.5 23t21.5 8q23 0 186.5 -141t300.5 -248zM602 473q-137 -107 -301 -248t-186 -141q-14 0 -21.5 7.5t-7.5 21.5q0 34 55.5 118
t184.5 242q-121 147 -180.5 236t-59.5 122q0 14 8 22.5t21 8.5q23 0 186.5 -141t300.5 -248z" />
    <glyph glyph-name="onequarter" unicode="&#xbc;" horiz-adv-x="1632" 
d="M1335 301v326l-262 -326h262zM1335 0v174h-319v127l401 490h103v-490h77v-127h-77v-174h-185zM303 -33l914 1440h110l-909 -1440h-115zM428 723q0 -49 33 -68.5t120 -21.5l1 -25h-504v25q88 2 120.5 21.5t32.5 68.5v485q0 40 -10 52t-39 12q-19 0 -44.5 -6.5t-53.5 -18.5
v29l322 123h22v-676z" />
    <glyph glyph-name="onehalf" unicode="&#xbd;" horiz-adv-x="1632" 
d="M1004 0v33l100 98q155 155 206.5 235t51.5 148t-40.5 108t-109.5 40q-53 0 -93.5 -27t-61.5 -76h-33q30 106 108 169t179 63q103 0 164 -57t61 -154q0 -63 -34.5 -120t-155.5 -165l-154 -139h170q106 0 140 19t57 75h26l-53 -250h-528zM303 -33l914 1440h110l-909 -1440
h-115zM428 723q0 -49 33 -68.5t120 -21.5l1 -25h-504v25q88 2 120.5 21.5t32.5 68.5v485q0 40 -10 52t-39 12q-19 0 -44.5 -6.5t-53.5 -18.5v29l322 123h22v-676z" />
    <glyph glyph-name="threequarters" unicode="&#xbe;" horiz-adv-x="1632" 
d="M1335 301v326l-262 -326h262zM1335 0v174h-319v127l401 490h103v-490h77v-127h-77v-174h-185zM303 -33l914 1440h110l-909 -1440h-115zM182 1022v20q80 19 121 56.5t41 91.5q0 52 -34 84.5t-89 32.5q-47 0 -86 -22.5t-78 -72.5l-24 13q50 84 125.5 129t169.5 45
q95 0 151 -40.5t56 -109.5q0 -42 -27.5 -82t-75.5 -67q77 -35 112.5 -84t35.5 -121q0 -76 -43.5 -141.5t-120.5 -108.5q-50 -26 -104.5 -39.5t-110.5 -13.5q-88 0 -142.5 30.5t-54.5 79.5q0 31 24 50.5t62 19.5q24 0 48 -9t44 -26q7 -6 21 -19q68 -65 112 -65q51 0 85 39.5
t34 100.5q0 81 -65.5 140.5t-186.5 88.5z" />
    <glyph glyph-name="questiondown" unicode="&#xbf;" horiz-adv-x="995" 
d="M573 915v-98q0 -40 -9.5 -78t-37.5 -94q-4 -9 -13 -27q-81 -165 -81 -319q0 -134 41.5 -199t126.5 -65q53 0 88 21.5t35 52.5q0 18 -39 73.5t-39 108.5q0 60 37.5 96.5t99.5 36.5q63 0 101.5 -43t38.5 -113q0 -134 -108.5 -218.5t-287.5 -84.5q-180 0 -289.5 92.5
t-109.5 241.5q0 62 17.5 116t52.5 99q51 67 176 140q39 22 57 34q42 28 60 63t18 89v75h65zM717 1251q0 -73 -50.5 -123.5t-123.5 -50.5t-122.5 50.5t-49.5 123.5q0 72 50.5 122t123.5 50t122.5 -49.5t49.5 -122.5z" />
    <glyph glyph-name="Agrave" unicode="&#xc0;" horiz-adv-x="1331" 
d="M-27 55q57 0 97 38.5t77 129.5l482 1198h55l487 -1157q57 -133 92.5 -171t88.5 -38v-55h-654l1 55q86 2 125.5 22t39.5 62q0 13 -6.5 36t-26.5 73l-61 155h-455l-61 -149q-13 -31 -20 -59t-7 -48q0 -47 36 -69.5t114 -22.5h12v-55h-416v55zM346 489h391l-198 484z
M861 1532h-91l-313 166q-56 30 -75 53t-19 56q0 40 25 65t65 25q30 0 61.5 -19t73.5 -63z" />
    <glyph glyph-name="Aacute" unicode="&#xc1;" horiz-adv-x="1331" 
d="M-27 55q57 0 97 38.5t77 129.5l482 1198h55l487 -1157q57 -133 92.5 -171t88.5 -38v-55h-654l1 55q86 2 125.5 22t39.5 62q0 13 -6.5 36t-26.5 73l-61 155h-455l-61 -149q-13 -31 -20 -59t-7 -48q0 -47 36 -69.5t114 -22.5h12v-55h-416v55zM346 489h391l-198 484z
M471 1532l273 283q42 44 73.5 63t61.5 19q40 0 65 -25t25 -65q0 -33 -19 -56t-75 -53l-313 -166h-91z" />
    <glyph glyph-name="Acircumflex" unicode="&#xc2;" horiz-adv-x="1331" 
d="M-27 55q57 0 97 38.5t77 129.5l482 1198h55l487 -1157q57 -133 92.5 -171t88.5 -38v-55h-654l1 55q86 2 125.5 22t39.5 62q0 13 -6.5 36t-26.5 73l-61 155h-455l-61 -149q-13 -31 -20 -59t-7 -48q0 -47 36 -69.5t114 -22.5h12v-55h-416v55zM346 489h391l-198 484z
M367 1532l225 351h148l225 -351h-84l-215 181l-215 -181h-84z" />
    <glyph glyph-name="Atilde" unicode="&#xc3;" horiz-adv-x="1331" 
d="M-27 55q57 0 97 38.5t77 129.5l482 1198h55l487 -1157q57 -133 92.5 -171t88.5 -38v-55h-654l1 55q86 2 125.5 22t39.5 62q0 13 -6.5 36t-26.5 73l-61 155h-455l-61 -149q-13 -31 -20 -59t-7 -48q0 -47 36 -69.5t114 -22.5h12v-55h-416v55zM346 489h391l-198 484z
M955 1856q-14 -117 -68 -182.5t-137 -65.5q-16 0 -51 7q-4 1 -6 1l-105 27q-14 4 -29 6t-28 2q-32 0 -53.5 -20.5t-36.5 -65.5h-66q17 124 69.5 185t141.5 61q17 0 32.5 -2t31.5 -6l108 -27q1 0 5 -1q23 -7 34 -7q32 0 54 21t38 67h66z" />
    <glyph glyph-name="Adieresis" unicode="&#xc4;" horiz-adv-x="1331" 
d="M-27 55q57 0 97 38.5t77 129.5l482 1198h55l487 -1157q57 -133 92.5 -171t88.5 -38v-55h-654l1 55q86 2 125.5 22t39.5 62q0 13 -6.5 36t-26.5 73l-61 155h-455l-61 -149q-13 -31 -20 -59t-7 -48q0 -47 36 -69.5t114 -22.5h12v-55h-416v55zM346 489h391l-198 484z
M727 1698q0 48 36 83.5t85 35.5t84 -35t35 -84q0 -54 -33.5 -88.5t-85.5 -34.5q-51 0 -86 35.5t-35 87.5zM363 1698q0 48 36 83.5t85 35.5t84 -35t35 -84q0 -54 -33.5 -88.5t-85.5 -34.5q-51 0 -86 35.5t-35 87.5z" />
    <glyph glyph-name="Aring" unicode="&#xc5;" horiz-adv-x="1331" 
d="M535 1704q0 -50 34.5 -85.5t83.5 -35.5q51 0 86 35t35 86q0 49 -36 85t-85 36t-83.5 -36t-34.5 -85zM418 1704q0 98 68.5 166.5t166.5 68.5q101 0 169.5 -68t68.5 -167q0 -98 -69.5 -168t-168.5 -70q-97 0 -166 70t-69 168zM-25 55q56 0 95 37.5t77 130.5l482 1198h55
l487 -1157q54 -129 90.5 -167t90.5 -42v-55h-654l1 55q86 2 125.5 22t39.5 62q0 13 -6.5 36t-26.5 73l-61 155h-455l-61 -149q-13 -31 -20 -59t-7 -48q0 -47 36 -69.5t114 -22.5h12v-55h-414v55zM346 489h391l-198 484z" />
    <glyph glyph-name="AE" unicode="&#xc6;" horiz-adv-x="1923" 
d="M842 1319l-332 -612h332v612zM-41 55q46 0 82.5 26t64.5 79l560 1020q14 25 21 47t7 39q0 38 -38 55t-132 19v49h1282v-414h-51q-18 181 -117.5 260.5t-308.5 79.5q-119 0 -145.5 -16t-26.5 -87v-462h31q138 0 206.5 71.5t82.5 231.5h47v-695h-47q-8 170 -80 248t-221 78
h-19v-461q0 -99 32 -121t150 -22q189 0 307.5 85t190.5 271h49l-78 -436h-1151v57q107 0 147 37.5t40 136.5v394h-381l-195 -361q-18 -33 -28.5 -63.5t-10.5 -53.5q0 -45 40 -66.5t126 -23.5v-57h-436v55z" />
    <glyph glyph-name="Ccedilla" unicode="&#xc7;" horiz-adv-x="1427" 
d="M1364 270q-106 -148 -254.5 -225.5t-327.5 -77.5q-149 0 -276.5 52t-226.5 153q-102 103 -150.5 231.5t-48.5 292.5q0 152 52.5 286.5t150.5 234.5q99 101 226.5 151.5t281.5 50.5q118 0 246 -46t145 -46q36 0 60.5 23.5t35.5 68.5h53v-479h-51q-74 197 -197 304.5
t-274 107.5q-186 0 -278.5 -165.5t-92.5 -496.5q0 -306 103.5 -462t306.5 -156q128 0 247 65t212 187zM485 -375l41 88q72 -39 130 -56t118 -17q40 0 63 21.5t23 59.5q0 43 -25.5 64.5t-74.5 21.5q-15 0 -30 -1.5t-32 -3.5v198h70v-112q16 2 32.5 3.5t32.5 2.5
q86 0 136.5 -46t50.5 -124q0 -86 -60.5 -133.5t-169.5 -47.5q-54 0 -124 18.5t-181 63.5z" />
    <glyph glyph-name="Egrave" unicode="&#xc8;" horiz-adv-x="1348" 
d="M43 0v51q107 0 146.5 39t39.5 148v886q0 129 -37.5 171t-142.5 42v52h1168v-414h-48q-20 182 -126.5 260t-335.5 78q-102 0 -126 -23t-24 -106v-434q6 0 18.5 -1t18.5 -1q129 0 195 70t90 235h49v-693h-49q-16 176 -85 247t-223 71h-14v-455q0 -90 26.5 -114.5
t118.5 -24.5q223 0 350 81.5t201 270.5h58l-84 -436h-1184zM869 1532h-91l-313 166q-56 30 -75 53t-19 56q0 40 25 65t65 25q30 0 61.5 -19t73.5 -63z" />
    <glyph glyph-name="Eacute" unicode="&#xc9;" horiz-adv-x="1348" 
d="M43 0v51q107 0 146.5 39t39.5 148v886q0 129 -37.5 171t-142.5 42v52h1168v-414h-48q-20 182 -126.5 260t-335.5 78q-102 0 -126 -23t-24 -106v-434q6 0 18.5 -1t18.5 -1q129 0 195 70t90 235h49v-693h-49q-16 176 -85 247t-223 71h-14v-455q0 -90 26.5 -114.5
t118.5 -24.5q223 0 350 81.5t201 270.5h58l-84 -436h-1184zM479 1532l273 283q42 44 73.5 63t61.5 19q40 0 65 -25t25 -65q0 -33 -19 -56t-75 -53l-313 -166h-91z" />
    <glyph glyph-name="Ecircumflex" unicode="&#xca;" horiz-adv-x="1348" 
d="M43 0v51q107 0 146.5 39t39.5 148v886q0 129 -37.5 171t-142.5 42v52h1168v-414h-48q-20 182 -126.5 260t-335.5 78q-102 0 -126 -23t-24 -106v-434q6 0 18.5 -1t18.5 -1q129 0 195 70t90 235h49v-693h-49q-16 176 -85 247t-223 71h-14v-455q0 -90 26.5 -114.5
t118.5 -24.5q223 0 350 81.5t201 270.5h58l-84 -436h-1184zM375 1532l225 351h148l225 -351h-84l-215 181l-215 -181h-84z" />
    <glyph glyph-name="Edieresis" unicode="&#xcb;" horiz-adv-x="1348" 
d="M43 0v51q107 0 146.5 39t39.5 148v886q0 129 -37.5 171t-142.5 42v52h1168v-414h-48q-20 182 -126.5 260t-335.5 78q-102 0 -126 -23t-24 -106v-434q6 0 18.5 -1t18.5 -1q129 0 195 70t90 235h49v-693h-49q-16 176 -85 247t-223 71h-14v-455q0 -90 26.5 -114.5
t118.5 -24.5q223 0 350 81.5t201 270.5h58l-84 -436h-1184zM735 1698q0 48 36 83.5t85 35.5t84 -35t35 -84q0 -54 -33.5 -88.5t-85.5 -34.5q-51 0 -86 35.5t-35 87.5zM371 1698q0 48 36 83.5t85 35.5t84 -35t35 -84q0 -54 -33.5 -88.5t-85.5 -34.5q-51 0 -86 35.5t-35 87.5z
" />
    <glyph glyph-name="Igrave" unicode="&#xcc;" horiz-adv-x="795" 
d="M745 1389v-52q-114 -5 -151 -36.5t-37 -120.5v-944q0 -101 39.5 -137t153.5 -46v-53h-709v53q110 11 149 46.5t39 129.5v951q0 89 -38 121.5t-150 36.5v51h704zM592 1532h-91l-313 166q-56 30 -75 53t-19 56q0 40 25 65t65 25q30 0 61.5 -19t73.5 -63z" />
    <glyph glyph-name="Iacute" unicode="&#xcd;" horiz-adv-x="795" 
d="M745 1389v-52q-114 -5 -151 -36.5t-37 -120.5v-944q0 -101 39.5 -137t153.5 -46v-53h-709v53q110 11 149 46.5t39 129.5v951q0 89 -38 121.5t-150 36.5v51h704zM202 1532l273 283q42 44 73.5 63t61.5 19q40 0 65 -25t25 -65q0 -33 -19 -56t-75 -53l-313 -166h-91z" />
    <glyph glyph-name="Icircumflex" unicode="&#xce;" horiz-adv-x="795" 
d="M745 1389v-52q-114 -5 -151 -36.5t-37 -120.5v-944q0 -101 39.5 -137t153.5 -46v-53h-709v53q110 11 149 46.5t39 129.5v951q0 89 -38 121.5t-150 36.5v51h704zM98 1532l225 351h148l225 -351h-84l-215 181l-215 -181h-84z" />
    <glyph glyph-name="Idieresis" unicode="&#xcf;" horiz-adv-x="795" 
d="M745 1389v-52q-114 -5 -151 -36.5t-37 -120.5v-944q0 -101 39.5 -137t153.5 -46v-53h-709v53q110 11 149 46.5t39 129.5v951q0 89 -38 121.5t-150 36.5v51h704zM458 1698q0 48 36 83.5t85 35.5t84 -35t35 -84q0 -54 -33.5 -88.5t-85.5 -34.5q-51 0 -86 35.5t-35 87.5z
M94 1698q0 48 36 83.5t85 35.5t84 -35t35 -84q0 -54 -33.5 -88.5t-85.5 -34.5q-51 0 -86 35.5t-35 87.5z" />
    <glyph glyph-name="Eth" unicode="&#xd0;" horiz-adv-x="1522" 
d="M563 219q0 -90 25.5 -117.5t99.5 -27.5q198 0 294.5 153.5t96.5 470.5q0 305 -99.5 464t-291.5 159q-74 0 -99.5 -27.5t-25.5 -119.5v-410h258v-88h-258v-457zM70 0v53q97 5 131.5 38.5t34.5 135.5v449h-236v88h236v377q0 117 -38 156t-143 41v51h629q364 0 559 -180
t195 -515q0 -344 -185 -519t-548 -175h-635z" />
    <glyph glyph-name="Ntilde" unicode="&#xd1;" horiz-adv-x="1505" 
d="M326 240q0 -111 36.5 -146t145.5 -41v-53h-453l1 53q104 4 139.5 39.5t35.5 147.5v944l-63 78q-3 3 -8 9q-50 61 -105 66v52h422l715 -875v637q0 111 -36.5 145.5t-145.5 40.5v52h452v-51q-103 -4 -139.5 -40.5t-36.5 -148.5v-1182h-57l-903 1100v-827zM1043 1856
q-14 -117 -68 -182.5t-137 -65.5q-16 0 -51 7q-4 1 -6 1l-105 27q-14 4 -29 6t-28 2q-32 0 -53.5 -20.5t-36.5 -65.5h-66q17 124 69.5 185t141.5 61q17 0 32.5 -2t31.5 -6l108 -27q1 0 5 -1q23 -7 34 -7q32 0 54 21t38 67h66z" />
    <glyph glyph-name="Ograve" unicode="&#xd2;" horiz-adv-x="1602" 
d="M84 694q0 163 62.5 305t181.5 248q95 84 219 129t262 45q142 0 266 -49t223 -143q109 -104 165.5 -240t56.5 -295q0 -163 -62.5 -304.5t-181.5 -248.5q-93 -83 -218 -128.5t-263 -45.5q-142 0 -267.5 49t-224.5 144q-107 102 -163 238.5t-56 295.5zM1157 694
q0 314 -95.5 486t-268.5 172q-174 0 -262.5 -165.5t-88.5 -492.5q0 -313 96 -485t269 -172q174 0 262 165t88 492zM996 1532h-91l-313 166q-56 30 -75 53t-19 56q0 40 25 65t65 25q30 0 61.5 -19t73.5 -63z" />
    <glyph glyph-name="Oacute" unicode="&#xd3;" horiz-adv-x="1602" 
d="M84 694q0 163 62.5 305t181.5 248q95 84 219 129t262 45q142 0 266 -49t223 -143q109 -104 165.5 -240t56.5 -295q0 -163 -62.5 -304.5t-181.5 -248.5q-93 -83 -218 -128.5t-263 -45.5q-142 0 -267.5 49t-224.5 144q-107 102 -163 238.5t-56 295.5zM1157 694
q0 314 -95.5 486t-268.5 172q-174 0 -262.5 -165.5t-88.5 -492.5q0 -313 96 -485t269 -172q174 0 262 165t88 492zM606 1532l273 283q42 44 73.5 63t61.5 19q40 0 65 -25t25 -65q0 -33 -19 -56t-75 -53l-313 -166h-91z" />
    <glyph glyph-name="Ocircumflex" unicode="&#xd4;" horiz-adv-x="1602" 
d="M84 694q0 163 62.5 305t181.5 248q95 84 219 129t262 45q142 0 266 -49t223 -143q109 -104 165.5 -240t56.5 -295q0 -163 -62.5 -304.5t-181.5 -248.5q-93 -83 -218 -128.5t-263 -45.5q-142 0 -267.5 49t-224.5 144q-107 102 -163 238.5t-56 295.5zM1157 694
q0 314 -95.5 486t-268.5 172q-174 0 -262.5 -165.5t-88.5 -492.5q0 -313 96 -485t269 -172q174 0 262 165t88 492zM502 1532l225 351h148l225 -351h-84l-215 181l-215 -181h-84z" />
    <glyph glyph-name="Otilde" unicode="&#xd5;" horiz-adv-x="1602" 
d="M84 694q0 163 62.5 305t181.5 248q95 84 219 129t262 45q142 0 266 -49t223 -143q109 -104 165.5 -240t56.5 -295q0 -163 -62.5 -304.5t-181.5 -248.5q-93 -83 -218 -128.5t-263 -45.5q-142 0 -267.5 49t-224.5 144q-107 102 -163 238.5t-56 295.5zM1157 694
q0 314 -95.5 486t-268.5 172q-174 0 -262.5 -165.5t-88.5 -492.5q0 -313 96 -485t269 -172q174 0 262 165t88 492zM1090 1856q-14 -117 -68 -182.5t-137 -65.5q-16 0 -51 7q-4 1 -6 1l-105 27q-14 4 -29 6t-28 2q-32 0 -53.5 -20.5t-36.5 -65.5h-66q17 124 69.5 185
t141.5 61q17 0 32.5 -2t31.5 -6l108 -27q1 0 5 -1q23 -7 34 -7q32 0 54 21t38 67h66z" />
    <glyph glyph-name="Odieresis" unicode="&#xd6;" horiz-adv-x="1602" 
d="M84 694q0 163 62.5 305t181.5 248q95 84 219 129t262 45q142 0 266 -49t223 -143q109 -104 165.5 -240t56.5 -295q0 -163 -62.5 -304.5t-181.5 -248.5q-93 -83 -218 -128.5t-263 -45.5q-142 0 -267.5 49t-224.5 144q-107 102 -163 238.5t-56 295.5zM1157 694
q0 314 -95.5 486t-268.5 172q-174 0 -262.5 -165.5t-88.5 -492.5q0 -313 96 -485t269 -172q174 0 262 165t88 492zM862 1698q0 48 36 83.5t85 35.5t84 -35t35 -84q0 -54 -33.5 -88.5t-85.5 -34.5q-51 0 -86 35.5t-35 87.5zM498 1698q0 48 36 83.5t85 35.5t84 -35t35 -84
q0 -54 -33.5 -88.5t-85.5 -34.5q-51 0 -86 35.5t-35 87.5z" />
    <glyph glyph-name="multiply" unicode="&#xd7;" horiz-adv-x="1706" 
d="M416 1202l450 -450l451 450l141 -139l-450 -453l450 -450l-141 -140l-451 451l-450 -451l-140 140l451 450l-451 453z" />
    <glyph glyph-name="Oslash" unicode="&#xd8;" horiz-adv-x="1602" 
d="M152 -162l190 281q-130 105 -196 248.5t-66 320.5q0 160 52 292t157 237q102 102 232 154t282 52q98 0 189.5 -22.5t174.5 -67.5l142 207h112l-174 -254q134 -107 204.5 -257t70.5 -327q0 -155 -56 -293t-161 -243q-98 -98 -231 -149.5t-288 -51.5q-108 0 -199 25
t-167 76l-154 -228h-114zM528 219q34 -86 103 -132t164 -46q179 0 272.5 164t93.5 479q0 126 -13.5 224t-39.5 165zM485 324l578 847q-38 90 -105.5 137.5t-154.5 47.5q-179 0 -272 -165.5t-93 -483.5q0 -120 12 -216.5t35 -166.5z" />
    <glyph glyph-name="Ugrave" unicode="&#xd9;" horiz-adv-x="1501" 
d="M223 1155q0 99 -39 138.5t-139 44.5v51h688v-52q-109 -4 -145.5 -39t-36.5 -143v-655q0 -246 64 -339t223 -93q179 0 268.5 104t89.5 313v668q0 102 -40.5 140t-154.5 44v52h445v-52q-90 -10 -124 -49t-34 -135v-600q0 -159 -14.5 -233t-48.5 -134q-62 -110 -182 -167.5
t-287 -57.5q-276 0 -404.5 123.5t-128.5 388.5v682zM1010 1532h-91l-313 166q-56 30 -75 53t-19 56q0 40 25 65t65 25q30 0 61.5 -19t73.5 -63z" />
    <glyph glyph-name="Uacute" unicode="&#xda;" horiz-adv-x="1501" 
d="M223 1155q0 99 -39 138.5t-139 44.5v51h688v-52q-109 -4 -145.5 -39t-36.5 -143v-655q0 -246 64 -339t223 -93q179 0 268.5 104t89.5 313v668q0 102 -40.5 140t-154.5 44v52h445v-52q-90 -10 -124 -49t-34 -135v-600q0 -159 -14.5 -233t-48.5 -134q-62 -110 -182 -167.5
t-287 -57.5q-276 0 -404.5 123.5t-128.5 388.5v682zM620 1532l273 283q42 44 73.5 63t61.5 19q40 0 65 -25t25 -65q0 -33 -19 -56t-75 -53l-313 -166h-91z" />
    <glyph glyph-name="Ucircumflex" unicode="&#xdb;" horiz-adv-x="1501" 
d="M223 1155q0 99 -39 138.5t-139 44.5v51h688v-52q-109 -4 -145.5 -39t-36.5 -143v-655q0 -246 64 -339t223 -93q179 0 268.5 104t89.5 313v668q0 102 -40.5 140t-154.5 44v52h445v-52q-90 -10 -124 -49t-34 -135v-600q0 -159 -14.5 -233t-48.5 -134q-62 -110 -182 -167.5
t-287 -57.5q-276 0 -404.5 123.5t-128.5 388.5v682zM516 1532l225 351h148l225 -351h-84l-215 181l-215 -181h-84z" />
    <glyph glyph-name="Udieresis" unicode="&#xdc;" horiz-adv-x="1501" 
d="M223 1155q0 99 -39 138.5t-139 44.5v51h688v-52q-109 -4 -145.5 -39t-36.5 -143v-655q0 -246 64 -339t223 -93q179 0 268.5 104t89.5 313v668q0 102 -40.5 140t-154.5 44v52h445v-52q-90 -10 -124 -49t-34 -135v-600q0 -159 -14.5 -233t-48.5 -134q-62 -110 -182 -167.5
t-287 -57.5q-276 0 -404.5 123.5t-128.5 388.5v682zM876 1698q0 48 36 83.5t85 35.5t84 -35t35 -84q0 -54 -33.5 -88.5t-85.5 -34.5q-51 0 -86 35.5t-35 87.5zM512 1698q0 48 36 83.5t85 35.5t84 -35t35 -84q0 -54 -33.5 -88.5t-85.5 -34.5q-51 0 -86 35.5t-35 87.5z" />
    <glyph glyph-name="Yacute" unicode="&#xdd;" horiz-adv-x="1298" 
d="M817 246q0 -113 37.5 -150.5t144.5 -42.5v-53h-690v53q103 4 141.5 45t38.5 148v299l-348 635q-49 89 -86.5 118.5t-95.5 37.5v53h672v-54h-15q-71 0 -106 -16t-35 -49q0 -15 6.5 -34.5t18.5 -41.5l258 -506l258 428q23 39 35 71t12 56q0 45 -39.5 68.5t-114.5 23.5h-10
v54h440v-54q-48 -4 -88 -36.5t-84 -104.5l-350 -573v-375zM454 1532l273 283q42 44 73.5 63t61.5 19q40 0 65 -25t25 -65q0 -33 -19 -56t-75 -53l-313 -166h-91z" />
    <glyph glyph-name="Thorn" unicode="&#xde;" horiz-adv-x="1274" 
d="M551 436h61q150 0 213.5 70t63.5 233q0 166 -55.5 240t-178.5 74q-58 0 -81 -22.5t-23 -80.5v-514zM41 0v53q110 11 149 46.5t39 129.5v951q0 89 -38 121.5t-150 36.5v51h700v-52q-110 -3 -150 -33.5t-40 -107.5v-72h96q171 0 259 -15.5t155 -51.5q87 -49 134.5 -129.5
t47.5 -179.5q0 -180 -135.5 -283t-376.5 -103h-180v-126q0 -100 40 -136t154 -47v-53h-704z" />
    <glyph glyph-name="germandbls" unicode="&#xdf;" horiz-adv-x="1126" 
d="M37 0v53q64 4 86 35.5t22 142.5v787q0 183 112.5 290t305.5 107q179 0 288.5 -84t109.5 -219q0 -117 -76 -195t-221 -110q195 -32 292 -135.5t97 -278.5q0 -185 -106 -305.5t-267 -120.5q-48 0 -86.5 10.5t-63.5 30.5l31 68q17 -13 35 -20t35 -7q71 0 99 79t28 304
q0 176 -46 254t-149 78h-20v72h16q76 0 105.5 54.5t29.5 211.5q0 137 -33 194.5t-110 57.5q-71 0 -100 -51t-29 -193v-1110h-385z" />
    <glyph glyph-name="agrave" unicode="&#xe0;" horiz-adv-x="1049" 
d="M606 193v323q-122 -29 -184 -95t-62 -165q0 -79 24.5 -116.5t76.5 -37.5q32 0 72.5 25t72.5 66zM610 106q-70 -65 -151 -99t-168 -34q-104 0 -167 60.5t-63 159.5q0 126 124 215t421 172v155q0 86 -37.5 126t-117.5 40q-65 0 -99.5 -17t-34.5 -48q0 -15 29 -54.5
t29 -76.5q0 -54 -39 -88.5t-100 -34.5q-63 0 -99.5 37.5t-36.5 101.5q0 109 109.5 179.5t284.5 70.5q213 0 306 -77t93 -253v-451q0 -57 7.5 -72.5t27.5 -15.5q9 0 20.5 6t28.5 19l27 -43q-51 -56 -107 -83.5t-121 -27.5q-76 0 -118 33.5t-48 99.5zM719 1081h-91l-313 166
q-56 30 -75 53t-19 56q0 40 25 65t65 25q30 0 61.5 -19t73.5 -63z" />
    <glyph glyph-name="aacute" unicode="&#xe1;" horiz-adv-x="1049" 
d="M606 193v323q-122 -29 -184 -95t-62 -165q0 -79 24.5 -116.5t76.5 -37.5q32 0 72.5 25t72.5 66zM610 106q-70 -65 -151 -99t-168 -34q-104 0 -167 60.5t-63 159.5q0 126 124 215t421 172v155q0 86 -37.5 126t-117.5 40q-65 0 -99.5 -17t-34.5 -48q0 -15 29 -54.5
t29 -76.5q0 -54 -39 -88.5t-100 -34.5q-63 0 -99.5 37.5t-36.5 101.5q0 109 109.5 179.5t284.5 70.5q213 0 306 -77t93 -253v-451q0 -57 7.5 -72.5t27.5 -15.5q9 0 20.5 6t28.5 19l27 -43q-51 -56 -107 -83.5t-121 -27.5q-76 0 -118 33.5t-48 99.5zM329 1081l273 283
q42 44 73.5 63t61.5 19q40 0 65 -25t25 -65q0 -33 -19 -56t-75 -53l-313 -166h-91z" />
    <glyph glyph-name="acircumflex" unicode="&#xe2;" horiz-adv-x="1049" 
d="M606 193v323q-122 -29 -184 -95t-62 -165q0 -79 24.5 -116.5t76.5 -37.5q32 0 72.5 25t72.5 66zM610 106q-70 -65 -151 -99t-168 -34q-104 0 -167 60.5t-63 159.5q0 126 124 215t421 172v155q0 86 -37.5 126t-117.5 40q-65 0 -99.5 -17t-34.5 -48q0 -15 29 -54.5
t29 -76.5q0 -54 -39 -88.5t-100 -34.5q-63 0 -99.5 37.5t-36.5 101.5q0 109 109.5 179.5t284.5 70.5q213 0 306 -77t93 -253v-451q0 -57 7.5 -72.5t27.5 -15.5q9 0 20.5 6t28.5 19l27 -43q-51 -56 -107 -83.5t-121 -27.5q-76 0 -118 33.5t-48 99.5zM225 1081l225 351h148
l225 -351h-84l-215 181l-215 -181h-84z" />
    <glyph glyph-name="atilde" unicode="&#xe3;" horiz-adv-x="1049" 
d="M606 193v323q-122 -29 -184 -95t-62 -165q0 -79 24.5 -116.5t76.5 -37.5q32 0 72.5 25t72.5 66zM610 106q-70 -65 -151 -99t-168 -34q-104 0 -167 60.5t-63 159.5q0 126 124 215t421 172v155q0 86 -37.5 126t-117.5 40q-65 0 -99.5 -17t-34.5 -48q0 -15 29 -54.5
t29 -76.5q0 -54 -39 -88.5t-100 -34.5q-63 0 -99.5 37.5t-36.5 101.5q0 109 109.5 179.5t284.5 70.5q213 0 306 -77t93 -253v-451q0 -57 7.5 -72.5t27.5 -15.5q9 0 20.5 6t28.5 19l27 -43q-51 -56 -107 -83.5t-121 -27.5q-76 0 -118 33.5t-48 99.5zM813 1405
q-14 -117 -68 -182.5t-137 -65.5q-16 0 -51 7q-4 1 -6 1l-105 27q-14 4 -29 6t-28 2q-32 0 -53.5 -20.5t-36.5 -65.5h-66q17 124 69.5 185t141.5 61q17 0 32.5 -2t31.5 -6l108 -27q1 0 5 -1q23 -7 34 -7q32 0 54 21t38 67h66z" />
    <glyph glyph-name="adieresis" unicode="&#xe4;" horiz-adv-x="1049" 
d="M606 193v323q-122 -29 -184 -95t-62 -165q0 -79 24.5 -116.5t76.5 -37.5q32 0 72.5 25t72.5 66zM610 106q-70 -65 -151 -99t-168 -34q-104 0 -167 60.5t-63 159.5q0 126 124 215t421 172v155q0 86 -37.5 126t-117.5 40q-65 0 -99.5 -17t-34.5 -48q0 -15 29 -54.5
t29 -76.5q0 -54 -39 -88.5t-100 -34.5q-63 0 -99.5 37.5t-36.5 101.5q0 109 109.5 179.5t284.5 70.5q213 0 306 -77t93 -253v-451q0 -57 7.5 -72.5t27.5 -15.5q9 0 20.5 6t28.5 19l27 -43q-51 -56 -107 -83.5t-121 -27.5q-76 0 -118 33.5t-48 99.5zM585 1247q0 48 36 83.5
t85 35.5t84 -35t35 -84q0 -54 -33.5 -88.5t-85.5 -34.5q-51 0 -86 35.5t-35 87.5zM221 1247q0 48 36 83.5t85 35.5t84 -35t35 -84q0 -54 -33.5 -88.5t-85.5 -34.5q-51 0 -86 35.5t-35 87.5z" />
    <glyph glyph-name="aring" unicode="&#xe5;" horiz-adv-x="1049" 
d="M393 1282q0 -50 35 -85.5t84 -35.5q51 0 86 35t35 86q0 49 -36 84t-85 35t-84 -35t-35 -84zM276 1280q0 99 69 168.5t167 69.5q100 0 169 -69t69 -169q0 -98 -69.5 -167t-168.5 -69q-97 0 -166.5 69t-69.5 167zM606 193v323q-122 -29 -184 -95t-62 -165
q0 -79 24.5 -116.5t76.5 -37.5q32 0 72.5 25t72.5 66zM610 106q-70 -65 -151 -99t-168 -34q-104 0 -167 60.5t-63 159.5q0 126 124 215t421 172v155q0 86 -37.5 126t-117.5 40q-65 0 -99.5 -17t-34.5 -48q0 -15 29 -54.5t29 -76.5q0 -54 -39 -88.5t-100 -34.5
q-63 0 -99.5 37.5t-36.5 101.5q0 109 109.5 179.5t284.5 70.5q213 0 306 -77t93 -253v-451q0 -57 7.5 -72.5t27.5 -15.5q9 0 20.5 6t28.5 19l27 -43q-51 -56 -107 -83.5t-121 -27.5q-76 0 -118 33.5t-48 99.5z" />
    <glyph glyph-name="ae" unicode="&#xe6;" horiz-adv-x="1450" 
d="M602 582v180q0 69 -40.5 105t-119.5 36q-57 0 -94 -21t-37 -53q0 -11 30 -50t30 -79q0 -53 -37.5 -84.5t-102.5 -31.5q-60 0 -95.5 37t-35.5 100q0 104 106 178t263 74q94 0 164 -25.5t119 -77.5q57 52 124.5 77.5t143.5 25.5q177 0 278 -119.5t101 -329.5v-12h-518v-37
q0 -173 57.5 -258.5t173.5 -85.5q73 0 135 34.5t117 104.5l43 -37q-81 -131 -183 -196.5t-227 -65.5q-106 0 -188.5 43t-136.5 127q-81 -84 -173.5 -127t-191.5 -43q-112 0 -179 60t-67 159q0 128 121.5 217t419.5 175zM881 590h266v59q0 146 -29.5 202t-101.5 56
t-103.5 -69.5t-31.5 -229.5v-18zM639 205q-19 48 -28 117t-9 161v29q-125 -42 -187.5 -108t-62.5 -156q0 -65 33.5 -103.5t89.5 -38.5q45 0 89 26.5t75 72.5z" />
    <glyph glyph-name="ccedilla" unicode="&#xe7;" horiz-adv-x="895" 
d="M868 184q-75 -106 -174.5 -160.5t-218.5 -54.5q-176 0 -296 139.5t-120 348.5q0 223 135 369.5t338 146.5q141 0 227.5 -62.5t86.5 -162.5q0 -56 -34.5 -90.5t-90.5 -34.5q-62 0 -92.5 35t-30.5 106q0 12 2 33.5t2 29.5q0 38 -22 58t-64 20q-84 0 -129 -86t-45 -248
q0 -215 74 -334.5t207 -119.5q57 0 105 24t99 78zM199 -375l41 88q72 -39 130 -56t118 -17q40 0 63 21.5t23 59.5q0 43 -25.5 64.5t-74.5 21.5q-15 0 -30 -1.5t-32 -3.5v198h70v-112q16 2 32.5 3.5t32.5 2.5q86 0 136.5 -46t50.5 -124q0 -86 -60.5 -133.5t-169.5 -47.5
q-54 0 -124 18.5t-181 63.5z" />
    <glyph glyph-name="egrave" unicode="&#xe8;" horiz-adv-x="918" 
d="M354 586h260q0 12 1 35t1 34q0 136 -29 193t-95 57q-69 0 -103.5 -70.5t-34.5 -211.5v-37zM868 221q-75 -127 -174.5 -189.5t-224.5 -62.5q-182 0 -296 141t-114 369q0 217 119 354.5t301 137.5q179 0 281 -119.5t102 -329.5v-16h-505q1 -185 65 -281t186 -96
q61 0 115 33.5t100 99.5zM684 1081h-91l-313 166q-56 30 -75 53t-19 56q0 40 25 65t65 25q30 0 61.5 -19t73.5 -63z" />
    <glyph glyph-name="eacute" unicode="&#xe9;" horiz-adv-x="918" 
d="M354 586h260q0 12 1 35t1 34q0 136 -29 193t-95 57q-69 0 -103.5 -70.5t-34.5 -211.5v-37zM868 221q-75 -127 -174.5 -189.5t-224.5 -62.5q-182 0 -296 141t-114 369q0 217 119 354.5t301 137.5q179 0 281 -119.5t102 -329.5v-16h-505q1 -185 65 -281t186 -96
q61 0 115 33.5t100 99.5zM294 1081l273 283q42 44 73.5 63t61.5 19q40 0 65 -25t25 -65q0 -33 -19 -56t-75 -53l-313 -166h-91z" />
    <glyph glyph-name="ecircumflex" unicode="&#xea;" horiz-adv-x="918" 
d="M354 586h260q0 12 1 35t1 34q0 136 -29 193t-95 57q-69 0 -103.5 -70.5t-34.5 -211.5v-37zM868 221q-75 -127 -174.5 -189.5t-224.5 -62.5q-182 0 -296 141t-114 369q0 217 119 354.5t301 137.5q179 0 281 -119.5t102 -329.5v-16h-505q1 -185 65 -281t186 -96
q61 0 115 33.5t100 99.5zM190 1081l225 351h148l225 -351h-84l-215 181l-215 -181h-84z" />
    <glyph glyph-name="edieresis" unicode="&#xeb;" horiz-adv-x="918" 
d="M354 586h260q0 12 1 35t1 34q0 136 -29 193t-95 57q-69 0 -103.5 -70.5t-34.5 -211.5v-37zM868 221q-75 -127 -174.5 -189.5t-224.5 -62.5q-182 0 -296 141t-114 369q0 217 119 354.5t301 137.5q179 0 281 -119.5t102 -329.5v-16h-505q1 -185 65 -281t186 -96
q61 0 115 33.5t100 99.5zM550 1247q0 48 36 83.5t85 35.5t84 -35t35 -84q0 -54 -33.5 -88.5t-85.5 -34.5q-51 0 -86 35.5t-35 87.5zM186 1247q0 48 36 83.5t85 35.5t84 -35t35 -84q0 -54 -33.5 -88.5t-85.5 -34.5q-51 0 -86 35.5t-35 87.5z" />
    <glyph glyph-name="igrave" unicode="&#xec;" horiz-adv-x="604" 
d="M453 170q0 -68 21 -93t75 -28v-49h-494l1 49q58 3 81 28.5t23 92.5v598q0 80 -20 102t-78 25l1 51h390v-776zM498 1081h-91l-313 166q-56 30 -75 53t-19 56q0 40 25 65t65 25q30 0 61.5 -19t73.5 -63z" />
    <glyph glyph-name="iacute" unicode="&#xed;" horiz-adv-x="604" 
d="M453 170q0 -68 21 -93t75 -28v-49h-494l1 49q58 3 81 28.5t23 92.5v598q0 80 -20 102t-78 25l1 51h390v-776zM108 1081l273 283q42 44 73.5 63t61.5 19q40 0 65 -25t25 -65q0 -33 -19 -56t-75 -53l-313 -166h-91z" />
    <glyph glyph-name="icircumflex" unicode="&#xee;" horiz-adv-x="604" 
d="M453 170q0 -68 21 -93t75 -28v-49h-494l1 49q58 3 81 28.5t23 92.5v598q0 80 -20 102t-78 25l1 51h390v-776zM4 1081l225 351h148l225 -351h-84l-215 181l-215 -181h-84z" />
    <glyph glyph-name="idieresis" unicode="&#xef;" horiz-adv-x="604" 
d="M453 170q0 -68 21 -93t75 -28v-49h-494l1 49q58 3 81 28.5t23 92.5v598q0 80 -20 102t-78 25l1 51h390v-776zM364 1247q0 48 36 83.5t85 35.5t84 -35t35 -84q0 -54 -33.5 -88.5t-85.5 -34.5q-51 0 -86 35.5t-35 87.5zM0 1247q0 48 36 83.5t85 35.5t84 -35t35 -84
q0 -54 -33.5 -88.5t-85.5 -34.5q-51 0 -86 35.5t-35 87.5z" />
    <glyph glyph-name="eth" unicode="&#xf0;" horiz-adv-x="1036" 
d="M585 967q-15 35 -39.5 73t-60.5 82l-323 -159l-31 73l299 150q-48 57 -95.5 110.5t-96.5 104.5l43 45q80 -44 154 -90.5t143 -95.5l307 149l37 -70l-269 -135q165 -133 244.5 -301.5t79.5 -380.5q0 -250 -126.5 -399.5t-336.5 -149.5q-200 0 -328.5 140t-128.5 360
q0 224 127 361t334 137q12 0 26 -1t41 -3zM356 475q0 -267 35.5 -351.5t128.5 -84.5q89 0 123.5 89t34.5 345q0 259 -35 348.5t-123 89.5q-93 0 -128.5 -84.5t-35.5 -351.5z" />
    <glyph glyph-name="ntilde" unicode="&#xf1;" horiz-adv-x="1161" 
d="M55 0l1 49q58 2 81 27.5t23 93.5v602q0 66 -23 93.5t-80 31.5v49h394v-131q56 77 130 116.5t160 39.5q135 0 201 -80.5t66 -245.5v-475q0 -66 22 -92.5t78 -28.5v-49h-492l1 49q55 2 77.5 29t22.5 92v492q0 95 -22 130t-77 35q-48 0 -90.5 -28t-76.5 -82v-547
q0 -66 21.5 -92.5t76.5 -28.5v-49h-494zM848 1405q-14 -117 -68 -182.5t-137 -65.5q-16 0 -51 7q-4 1 -6 1l-105 27q-14 4 -29 6t-28 2q-32 0 -53.5 -20.5t-36.5 -65.5h-66q17 124 69.5 185t141.5 61q17 0 32.5 -2t31.5 -6l108 -27q1 0 5 -1q23 -7 34 -7q32 0 54 21t38 67
h66z" />
    <glyph glyph-name="ograve" unicode="&#xf2;" horiz-adv-x="1026" 
d="M57 473q0 222 126.5 360t328.5 138t328.5 -138t126.5 -360t-126.5 -361t-326.5 -139t-328.5 140t-128.5 360zM356 475q0 -257 35 -346.5t123 -89.5t122 87.5t34 346.5q0 260 -34.5 349t-121.5 89q-88 0 -123 -89.5t-35 -346.5zM709 1081h-91l-313 166q-56 30 -75 53
t-19 56q0 40 25 65t65 25q30 0 61.5 -19t73.5 -63z" />
    <glyph glyph-name="oacute" unicode="&#xf3;" horiz-adv-x="1026" 
d="M57 473q0 222 126.5 360t328.5 138t328.5 -138t126.5 -360t-126.5 -361t-326.5 -139t-328.5 140t-128.5 360zM356 475q0 -257 35 -346.5t123 -89.5t122 87.5t34 346.5q0 260 -34.5 349t-121.5 89q-88 0 -123 -89.5t-35 -346.5zM319 1081l273 283q42 44 73.5 63t61.5 19
q40 0 65 -25t25 -65q0 -33 -19 -56t-75 -53l-313 -166h-91z" />
    <glyph glyph-name="ocircumflex" unicode="&#xf4;" horiz-adv-x="1026" 
d="M57 473q0 222 126.5 360t328.5 138t328.5 -138t126.5 -360t-126.5 -361t-326.5 -139t-328.5 140t-128.5 360zM356 475q0 -257 35 -346.5t123 -89.5t122 87.5t34 346.5q0 260 -34.5 349t-121.5 89q-88 0 -123 -89.5t-35 -346.5zM215 1081l225 351h148l225 -351h-84
l-215 181l-215 -181h-84z" />
    <glyph glyph-name="otilde" unicode="&#xf5;" horiz-adv-x="1026" 
d="M57 473q0 222 126.5 360t328.5 138t328.5 -138t126.5 -360t-126.5 -361t-326.5 -139t-328.5 140t-128.5 360zM356 475q0 -257 35 -346.5t123 -89.5t122 87.5t34 346.5q0 260 -34.5 349t-121.5 89q-88 0 -123 -89.5t-35 -346.5zM803 1405q-14 -117 -68 -182.5t-137 -65.5
q-16 0 -51 7q-4 1 -6 1l-105 27q-14 4 -29 6t-28 2q-32 0 -53.5 -20.5t-36.5 -65.5h-66q17 124 69.5 185t141.5 61q17 0 32.5 -2t31.5 -6l108 -27q1 0 5 -1q23 -7 34 -7q32 0 54 21t38 67h66z" />
    <glyph glyph-name="odieresis" unicode="&#xf6;" horiz-adv-x="1026" 
d="M57 473q0 222 126.5 360t328.5 138t328.5 -138t126.5 -360t-126.5 -361t-326.5 -139t-328.5 140t-128.5 360zM356 475q0 -257 35 -346.5t123 -89.5t122 87.5t34 346.5q0 260 -34.5 349t-121.5 89q-88 0 -123 -89.5t-35 -346.5zM575 1247q0 48 36 83.5t85 35.5t84 -35
t35 -84q0 -54 -33.5 -88.5t-85.5 -34.5q-51 0 -86 35.5t-35 87.5zM211 1247q0 48 36 83.5t85 35.5t84 -35t35 -84q0 -54 -33.5 -88.5t-85.5 -34.5q-51 0 -86 35.5t-35 87.5z" />
    <glyph glyph-name="divide" unicode="&#xf7;" horiz-adv-x="1706" 
d="M854 369q62 0 107 -45t45 -107q0 -61 -45 -105t-107 -44q-63 0 -107.5 43t-44.5 106t44.5 107.5t107.5 44.5zM254 711h1198v-199h-1198v199zM854 1155q62 0 107 -44.5t45 -106.5q0 -63 -44.5 -107.5t-107.5 -44.5t-107.5 44.5t-44.5 107.5t44.5 107t107.5 44z" />
    <glyph glyph-name="oslash" unicode="&#xf8;" horiz-adv-x="1026" 
d="M156 -186h-93l154 262q-78 69 -119 170t-41 227q0 222 127 360t328 138q61 0 110.5 -12t94.5 -37l121 204h90l-144 -247q93 -74 138 -174t45 -232q0 -223 -126 -361.5t-327 -138.5q-62 0 -120 15t-109 45zM371 180q12 -72 47 -107.5t94 -35.5q88 0 124 84.5t36 304.5
q0 52 -1.5 116t-5.5 137zM356 313l289 488q-5 51 -38 78.5t-89 27.5q-94 0 -130 -88t-36 -358q0 -20 2 -86q2 -40 2 -62z" />
    <glyph glyph-name="ugrave" unicode="&#xf9;" horiz-adv-x="1143" 
d="M696 123q-52 -72 -130 -112t-167 -40q-134 0 -197 78.5t-63 247.5v459q0 79 -22 108t-82 33v49h397v-665q0 -99 24 -134.5t83 -35.5q43 0 83.5 23t73.5 67v555q0 82 -24.5 110.5t-93.5 30.5v49h409v-733q0 -70 22.5 -93.5t88.5 -29.5l-1 -51q-86 -2 -186 -19t-215 -51
v154zM732 1081h-91l-313 166q-56 30 -75 53t-19 56q0 40 25 65t65 25q30 0 61.5 -19t73.5 -63z" />
    <glyph glyph-name="uacute" unicode="&#xfa;" horiz-adv-x="1143" 
d="M696 123q-52 -72 -130 -112t-167 -40q-134 0 -197 78.5t-63 247.5v459q0 79 -22 108t-82 33v49h397v-665q0 -99 24 -134.5t83 -35.5q43 0 83.5 23t73.5 67v555q0 82 -24.5 110.5t-93.5 30.5v49h409v-733q0 -70 22.5 -93.5t88.5 -29.5l-1 -51q-86 -2 -186 -19t-215 -51
v154zM342 1081l273 283q42 44 73.5 63t61.5 19q40 0 65 -25t25 -65q0 -33 -19 -56t-75 -53l-313 -166h-91z" />
    <glyph glyph-name="ucircumflex" unicode="&#xfb;" horiz-adv-x="1143" 
d="M696 123q-52 -72 -130 -112t-167 -40q-134 0 -197 78.5t-63 247.5v459q0 79 -22 108t-82 33v49h397v-665q0 -99 24 -134.5t83 -35.5q43 0 83.5 23t73.5 67v555q0 82 -24.5 110.5t-93.5 30.5v49h409v-733q0 -70 22.5 -93.5t88.5 -29.5l-1 -51q-86 -2 -186 -19t-215 -51
v154zM238 1081l225 351h148l225 -351h-84l-215 181l-215 -181h-84z" />
    <glyph glyph-name="udieresis" unicode="&#xfc;" horiz-adv-x="1143" 
d="M696 123q-52 -72 -130 -112t-167 -40q-134 0 -197 78.5t-63 247.5v459q0 79 -22 108t-82 33v49h397v-665q0 -99 24 -134.5t83 -35.5q43 0 83.5 23t73.5 67v555q0 82 -24.5 110.5t-93.5 30.5v49h409v-733q0 -70 22.5 -93.5t88.5 -29.5l-1 -51q-86 -2 -186 -19t-215 -51
v154zM598 1247q0 48 36 83.5t85 35.5t84 -35t35 -84q0 -54 -33.5 -88.5t-85.5 -34.5q-51 0 -86 35.5t-35 87.5zM234 1247q0 48 36 83.5t85 35.5t84 -35t35 -84q0 -54 -33.5 -88.5t-85.5 -34.5q-51 0 -86 35.5t-35 87.5z" />
    <glyph glyph-name="yacute" unicode="&#xfd;" horiz-adv-x="915" 
d="M-14 895v51h508l-1 -51q-60 -2 -81 -14t-21 -43q0 -11 3.5 -23.5t11.5 -32.5l159 -420l138 374q11 32 16.5 57t5.5 43q0 32 -24 45.5t-83 13.5v51h295v-51q-36 0 -61.5 -30.5t-60.5 -125.5l-297 -813q-78 -212 -149 -283t-185 -71q-81 0 -130.5 47t-49.5 125
q0 57 36.5 96t92.5 39q54 0 86 -30t32 -80q0 -8 -1 -19.5t-1 -15.5q0 -15 10.5 -25t26.5 -10q43 0 91.5 81t74.5 206l-317 778q-1 1 -2 3q-55 128 -119 128h-4zM264 1081l273 283q42 44 73.5 63t61.5 19q40 0 65 -25t25 -65q0 -33 -19 -56t-75 -53l-313 -166h-91z" />
    <glyph glyph-name="thorn" unicode="&#xfe;" horiz-adv-x="1133" 
d="M451 211q22 -59 60 -91t85 -32q89 0 131.5 94t42.5 291q0 201 -38.5 288t-125.5 87q-47 0 -85.5 -32.5t-69.5 -98.5v-506zM53 -424l1 47q61 3 83.5 34t22.5 148v1379q0 57 -5 87t-16 42q-8 11 -25 18t-55 12v46h392v-560q50 71 114 107.5t137 36.5q163 0 264 -135.5
t101 -358.5q0 -221 -107 -364.5t-268 -143.5q-73 0 -133.5 32.5t-107.5 96.5v-276q0 -124 30.5 -159.5t120.5 -39.5v-49h-549z" />
    <glyph glyph-name="ydieresis" unicode="&#xff;" horiz-adv-x="915" 
d="M-14 895v51h508l-1 -51q-60 -2 -81 -14t-21 -43q0 -11 3.5 -23.5t11.5 -32.5l159 -420l138 374q11 32 16.5 57t5.5 43q0 32 -24 45.5t-83 13.5v51h295v-51q-36 0 -61.5 -30.5t-60.5 -125.5l-297 -813q-78 -212 -149 -283t-185 -71q-81 0 -130.5 47t-49.5 125
q0 57 36.5 96t92.5 39q54 0 86 -30t32 -80q0 -8 -1 -19.5t-1 -15.5q0 -15 10.5 -25t26.5 -10q43 0 91.5 81t74.5 206l-317 778q-1 1 -2 3q-55 128 -119 128h-4zM520 1247q0 48 36 83.5t85 35.5t84 -35t35 -84q0 -54 -33.5 -88.5t-85.5 -34.5q-51 0 -86 35.5t-35 87.5z
M156 1247q0 48 36 83.5t85 35.5t84 -35t35 -84q0 -54 -33.5 -88.5t-85.5 -34.5q-51 0 -86 35.5t-35 87.5z" />
    <glyph glyph-name="Cacute" unicode="&#x106;" horiz-adv-x="1427" 
d="M1364 270q-106 -148 -254.5 -225.5t-327.5 -77.5q-149 0 -276.5 52t-226.5 153q-102 103 -150.5 231.5t-48.5 292.5q0 152 52.5 286.5t150.5 234.5q99 101 226.5 151.5t281.5 50.5q118 0 246 -46t145 -46q36 0 60.5 23.5t35.5 68.5h53v-479h-51q-74 197 -197 304.5
t-274 107.5q-186 0 -278.5 -165.5t-92.5 -496.5q0 -306 103.5 -462t306.5 -156q128 0 247 65t212 187zM575 1532l273 283q42 44 73.5 63t61.5 19q40 0 65 -25t25 -65q0 -33 -19 -56t-75 -53l-313 -166h-91z" />
    <glyph glyph-name="cacute" unicode="&#x107;" horiz-adv-x="895" 
d="M868 184q-75 -106 -174.5 -160.5t-218.5 -54.5q-176 0 -296 139.5t-120 348.5q0 223 135 369.5t338 146.5q141 0 227.5 -62.5t86.5 -162.5q0 -56 -34.5 -90.5t-90.5 -34.5q-62 0 -92.5 35t-30.5 106q0 12 2 33.5t2 29.5q0 38 -22 58t-64 20q-84 0 -129 -86t-45 -248
q0 -215 74 -334.5t207 -119.5q57 0 105 24t99 78zM337 1081l273 283q42 44 73.5 63t61.5 19q40 0 65 -25t25 -65q0 -33 -19 -56t-75 -53l-313 -166h-91z" />
    <glyph glyph-name="Ccaron" unicode="&#x10c;" horiz-adv-x="1427" 
d="M1364 270q-106 -148 -254.5 -225.5t-327.5 -77.5q-149 0 -276.5 52t-226.5 153q-102 103 -150.5 231.5t-48.5 292.5q0 152 52.5 286.5t150.5 234.5q99 101 226.5 151.5t281.5 50.5q118 0 246 -46t145 -46q36 0 60.5 23.5t35.5 68.5h53v-479h-51q-74 197 -197 304.5
t-274 107.5q-186 0 -278.5 -165.5t-92.5 -496.5q0 -306 103.5 -462t306.5 -156q128 0 247 65t212 187zM471 1883h84l215 -181l215 181h84l-225 -351h-148z" />
    <glyph glyph-name="ccaron" unicode="&#x10d;" horiz-adv-x="895" 
d="M868 184q-75 -106 -174.5 -160.5t-218.5 -54.5q-176 0 -296 139.5t-120 348.5q0 223 135 369.5t338 146.5q141 0 227.5 -62.5t86.5 -162.5q0 -56 -34.5 -90.5t-90.5 -34.5q-62 0 -92.5 35t-30.5 106q0 12 2 33.5t2 29.5q0 38 -22 58t-64 20q-84 0 -129 -86t-45 -248
q0 -215 74 -334.5t207 -119.5q57 0 105 24t99 78zM233 1432h84l215 -181l215 181h84l-225 -351h-148z" />
    <glyph glyph-name="dcroat" unicode="&#x111;" horiz-adv-x="1139" 
d="M680 -31v150q-42 -72 -107.5 -111t-146.5 -39q-158 0 -262.5 135t-104.5 345q0 232 108 377t277 145q71 0 131 -30t105 -87v217h-234v84h234v68q0 63 -31.5 89t-109.5 28v49h434v-234h166v-84h-166v-846q0 -79 21.5 -106t84.5 -35v-51q-86 0 -183 -15.5t-216 -48.5z
M680 231v506q-10 52 -52.5 85.5t-97.5 33.5q-90 0 -131 -91.5t-41 -297.5q0 -202 39 -291.5t125 -89.5q49 0 94.5 41.5t63.5 103.5z" />
    <glyph glyph-name="Gbreve" unicode="&#x11e;" horiz-adv-x="1548" 
d="M1360 88q-133 -59 -270 -89t-273 -30q-333 0 -533 199t-200 530q0 146 48.5 278.5t135.5 225.5q99 105 232 161t284 56q127 0 259 -45t139 -45q32 0 53 19t43 71h55v-481h-53q-72 194 -195.5 304t-269.5 110q-184 0 -277.5 -165.5t-93.5 -492.5q0 -313 103.5 -484
t292.5 -171q110 0 157 40.5t47 137.5v172q0 97 -40 129t-164 37v49h686v-48q-98 -4 -132 -36t-34 -129v-303zM465 1852h76q17 -65 71.5 -94t161.5 -29q108 0 162.5 29t68.5 94h76q-20 -141 -98.5 -215t-208.5 -74q-129 0 -208.5 74t-100.5 215z" />
    <glyph glyph-name="gbreve" unicode="&#x11f;" horiz-adv-x="997" 
d="M967 928v-111h-150q36 -45 54 -94t18 -102q0 -135 -101.5 -221.5t-263.5 -86.5q-6 0 -36.5 2t-55.5 2q-54 0 -89.5 -28.5t-35.5 -71.5q0 -36 29 -51.5t94 -15.5h105q238 0 333 -60t95 -203q0 -150 -135.5 -232.5t-383.5 -82.5q-187 0 -294 54t-107 147q0 52 40.5 88
t125.5 61q-71 33 -104 74.5t-33 95.5q0 72 57 131t178 113q-120 45 -179.5 123t-59.5 188q0 140 115.5 232t295.5 92q63 0 120 -11t112 -32h256zM295 -104q-36 -24 -54 -53.5t-18 -63.5q0 -61 71.5 -97t194.5 -36q154 0 234 39t80 114q0 51 -41.5 74t-136.5 23h-330z
M348 643q0 -140 31 -202t100 -62t99 61t30 203q0 143 -29.5 202.5t-99.5 59.5t-100.5 -60t-30.5 -202zM191 1401h76q17 -65 71.5 -94t161.5 -29q108 0 162.5 29t68.5 94h76q-20 -141 -98.5 -215t-208.5 -74q-129 0 -208.5 74t-100.5 215z" />
    <glyph glyph-name="Idotaccent" unicode="&#x130;" horiz-adv-x="795" 
d="M745 1389v-52q-114 -5 -151 -36.5t-37 -120.5v-944q0 -101 39.5 -137t153.5 -46v-53h-709v53q110 11 149 46.5t39 129.5v951q0 89 -38 121.5t-150 36.5v51h704zM270 1698q0 51 38 88t89 37q53 0 90 -36.5t37 -88.5q0 -55 -36 -91t-91 -36q-54 0 -90.5 36.5t-36.5 90.5z
" />
    <glyph glyph-name="dotlessi" unicode="&#x131;" horiz-adv-x="604" 
d="M453 170q0 -68 21 -93t75 -28v-49h-494l1 49q58 3 81 28.5t23 92.5v598q0 80 -20 102t-78 25l1 51h390v-776z" />
    <glyph glyph-name="Lslash" unicode="&#x141;" horiz-adv-x="1311" 
d="M57 0l1 53q102 4 141 45t39 148v329l-228 -157v110l228 158v469q0 99 -38.5 138t-139.5 44l-1 52h713v-51q-126 -2 -167.5 -37t-41.5 -146v-301l340 238v-113l-340 -238v-489q0 -113 29.5 -140.5t130.5 -27.5q222 0 341 87t193 300h56l-78 -471h-1178z" />
    <glyph glyph-name="lslash" unicode="&#x142;" horiz-adv-x="618" 
d="M461 883l170 114v-102l-170 -117v-608q0 -67 21 -92t77 -29v-49h-493v49q59 3 81.5 28.5t22.5 92.5v481l-170 -114v102l170 117v456q0 78 -21 102t-77 26v49h389v-506z" />
    <glyph glyph-name="OE" unicode="&#x152;" horiz-adv-x="2109" 
d="M1008 391v701q0 143 -45.5 195t-157.5 52q-184 0 -278.5 -168.5t-94.5 -494.5q0 -315 88.5 -467t272.5 -152q122 0 168.5 64t46.5 270zM1991 0h-936q-12 0 -34.5 -1t-33.5 -1q-19 0 -84 -5t-112 -5q-136 0 -239.5 27.5t-189.5 86.5q-128 90 -204 246.5t-76 331.5
q0 157 49 288.5t143 229.5q103 105 226.5 154t287.5 49q31 0 152.5 -7.5t212.5 -7.5h825v-411h-45q-27 187 -123.5 260.5t-324.5 73.5q-120 0 -143 -17.5t-23 -101.5v-440q6 0 18.5 -1t18.5 -1q133 0 199 69.5t87 235.5h54v-693h-54q-14 170 -83.5 244t-215.5 74h-24v-463
q0 -91 27 -114t147 -23q205 0 326 82.5t200 275.5h58z" />
    <glyph glyph-name="oe" unicode="&#x153;" horiz-adv-x="1470" 
d="M915 588h266q2 14 2.5 29t0.5 42q0 133 -31.5 191.5t-99.5 58.5q-74 0 -106 -68.5t-32 -232.5v-20zM788 70q-59 -49 -127.5 -74t-144.5 -25q-206 0 -332.5 137.5t-126.5 360.5q0 219 127 361.5t320 142.5q87 0 152 -24.5t112 -74.5q60 51 126 75t148 24
q176 0 275.5 -118.5t99.5 -328.5v-18h-502v-47q0 -168 54.5 -251t165.5 -83q68 0 129.5 34.5t111.5 100.5l43 -37q-66 -124 -166.5 -189t-228.5 -65q-69 0 -127.5 24.5t-108.5 74.5zM356 475q0 -264 31 -350t111 -86t112.5 92.5t32.5 343.5q0 250 -32.5 342t-112.5 92
t-111 -85.5t-31 -348.5z" />
    <glyph glyph-name="Scedilla" unicode="&#x15e;" horiz-adv-x="1190" 
d="M131 -33v514h59q48 -221 149 -328.5t261 -107.5q112 0 181 63t69 164q0 71 -39.5 123t-124.5 92l-190 95q-180 86 -262 188.5t-82 241.5q0 183 113.5 296t297.5 113q105 0 220.5 -32.5t129.5 -32.5q26 0 42.5 17t21.5 48h57v-448h-51q-44 172 -152.5 277.5t-238.5 105.5
q-101 0 -164 -55t-63 -142q0 -72 48 -127t162 -108l197 -93q176 -83 250 -181.5t74 -243.5q0 -199 -138.5 -318t-371.5 -119q-100 0 -207.5 34t-120.5 34q-31 0 -46.5 -15t-25.5 -55h-55zM346 -375l41 88q72 -39 130 -56t118 -17q40 0 63 21.5t23 59.5q0 43 -25.5 64.5
t-74.5 21.5q-15 0 -30 -1.5t-32 -3.5v198h70v-112q16 2 32.5 3.5t32.5 2.5q86 0 136.5 -46t50.5 -124q0 -86 -60.5 -133.5t-169.5 -47.5q-54 0 -124 18.5t-181 63.5z" />
    <glyph glyph-name="scedilla" unicode="&#x15f;" horiz-adv-x="879" 
d="M109 -27v349h53q29 -127 101.5 -200t164.5 -73q75 0 116.5 34t41.5 95q0 46 -26.5 79.5t-84.5 61.5l-149 76q-110 55 -161.5 122t-51.5 155q0 133 88 217t229 84q54 0 126 -21.5t93 -21.5q17 0 30.5 11t22.5 32h41v-297h-47q-36 110 -98.5 168.5t-142.5 58.5
q-63 0 -99.5 -30t-36.5 -82q0 -45 29 -78.5t98 -67.5l138 -67q110 -56 155 -121.5t45 -167.5q0 -145 -88 -230.5t-235 -85.5q-69 0 -146.5 27t-91.5 27q-24 -1 -41 -14.5t-26 -38.5zM190 -375l41 88q72 -39 130 -56t118 -17q40 0 63 21.5t23 59.5q0 43 -25.5 64.5
t-74.5 21.5q-15 0 -30 -1.5t-32 -3.5v198h70v-112q16 2 32.5 3.5t32.5 2.5q86 0 136.5 -46t50.5 -124q0 -86 -60.5 -133.5t-169.5 -47.5q-54 0 -124 18.5t-181 63.5z" />
    <glyph glyph-name="Scaron" unicode="&#x160;" horiz-adv-x="1190" 
d="M131 -33v514h59q48 -221 149 -328.5t261 -107.5q112 0 181 63t69 164q0 71 -39.5 123t-124.5 92l-190 95q-180 86 -262 188.5t-82 241.5q0 183 113.5 296t297.5 113q105 0 220.5 -32.5t129.5 -32.5q26 0 42.5 17t21.5 48h57v-448h-51q-44 172 -152.5 277.5t-238.5 105.5
q-101 0 -164 -55t-63 -142q0 -72 48 -127t162 -108l197 -93q176 -83 250 -181.5t74 -243.5q0 -199 -138.5 -318t-371.5 -119q-100 0 -207.5 34t-120.5 34q-31 0 -46.5 -15t-25.5 -55h-55zM297 1883h84l215 -181l215 181h84l-225 -351h-148z" />
    <glyph glyph-name="scaron" unicode="&#x161;" horiz-adv-x="879" 
d="M109 -27v349h53q29 -127 101.5 -200t164.5 -73q75 0 116.5 34t41.5 95q0 46 -26.5 79.5t-84.5 61.5l-149 76q-110 55 -161.5 122t-51.5 155q0 133 88 217t229 84q54 0 126 -21.5t93 -21.5q17 0 30.5 11t22.5 32h41v-297h-47q-36 110 -98.5 168.5t-142.5 58.5
q-63 0 -99.5 -30t-36.5 -82q0 -45 29 -78.5t98 -67.5l138 -67q110 -56 155 -121.5t45 -167.5q0 -145 -88 -230.5t-235 -85.5q-69 0 -146.5 27t-91.5 27q-24 -1 -41 -14.5t-26 -38.5zM141 1432h84l215 -181l215 181h84l-225 -351h-148z" />
    <glyph glyph-name="Ydieresis" unicode="&#x178;" horiz-adv-x="1298" 
d="M817 246q0 -113 37.5 -150.5t144.5 -42.5v-53h-690v53q103 4 141.5 45t38.5 148v299l-348 635q-49 89 -86.5 118.5t-95.5 37.5v53h672v-54h-15q-71 0 -106 -16t-35 -49q0 -15 6.5 -34.5t18.5 -41.5l258 -506l258 428q23 39 35 71t12 56q0 45 -39.5 68.5t-114.5 23.5h-10
v54h440v-54q-48 -4 -88 -36.5t-84 -104.5l-350 -573v-375zM710 1698q0 48 36 83.5t85 35.5t84 -35t35 -84q0 -54 -33.5 -88.5t-85.5 -34.5q-51 0 -86 35.5t-35 87.5zM346 1698q0 48 36 83.5t85 35.5t84 -35t35 -84q0 -54 -33.5 -88.5t-85.5 -34.5q-51 0 -86 35.5t-35 87.5z
" />
    <glyph glyph-name="Zcaron" unicode="&#x17d;" horiz-adv-x="1348" 
d="M61 0v33l781 1278h-189q-206 0 -308 -76.5t-159 -269.5h-51l39 424h1065v-37l-772 -1264h262q213 0 337 100t175 312h51l-51 -500h-1180zM375 1883h84l215 -181l215 181h84l-225 -351h-148z" />
    <glyph glyph-name="zcaron" unicode="&#x17e;" horiz-adv-x="893" 
d="M39 0v43l473 834h-121q-114 0 -172 -49t-86 -169h-53l16 287h742v-59l-455 -811h82q140 0 213.5 57t114.5 195h49l-25 -328h-778zM147 1432h84l215 -181l215 181h84l-225 -351h-148z" />
    <glyph glyph-name="florin" unicode="&#x192;" 
d="M152 809v90h239q32 267 138 411t272 144q95 0 152 -46t57 -122q0 -54 -30.5 -87.5t-80.5 -33.5q-45 0 -76.5 29t-31.5 70q0 24 17 53.5t17 38.5q0 13 -10 21.5t-24 8.5q-73 0 -104.5 -89.5t-31.5 -303.5q0 -18 1 -50t1 -44h242v-90h-241q-4 -567 -119 -847.5t-344 -280.5
q-86 0 -142.5 47t-56.5 116q0 56 31 88.5t84 32.5q50 0 80 -25.5t30 -68.5q0 -27 -17.5 -53.5t-17.5 -34.5q0 -16 12.5 -25.5t32.5 -9.5q73 0 101 89t28 439v33q0 103 6 230.5t16 269.5h-230z" />
    <glyph glyph-name="circumflex" unicode="&#x2c6;" 
d="M213 1081l225 351h148l225 -351h-84l-215 181l-215 -181h-84z" />
    <glyph glyph-name="caron" unicode="&#x2c7;" 
d="M213 1432h84l215 -181l215 181h84l-225 -351h-148z" />
    <glyph glyph-name="breve" unicode="&#x2d8;" 
d="M203 1401h76q17 -65 71.5 -94t161.5 -29q108 0 162.5 29t68.5 94h76q-20 -141 -98.5 -215t-208.5 -74q-129 0 -208.5 74t-100.5 215z" />
    <glyph glyph-name="dotaccent" unicode="&#x2d9;" 
d="M385 1247q0 51 38 88t89 37q53 0 90 -36.5t37 -88.5q0 -55 -36 -91t-91 -36q-54 0 -90.5 36.5t-36.5 90.5z" />
    <glyph glyph-name="ring" unicode="&#x2da;" 
d="M393 1282q0 -50 35 -85.5t84 -35.5q51 0 86 35t35 86q0 49 -36 84t-85 35t-84 -35t-35 -84zM276 1280q0 99 69 168.5t167 69.5q100 0 169 -69t69 -169q0 -98 -69.5 -167t-168.5 -69q-97 0 -166.5 69t-69.5 167z" />
    <glyph glyph-name="ogonek" unicode="&#x2db;" 
d="M629 31q-90 -72 -131 -135.5t-41 -128.5q0 -54 24 -83.5t68 -29.5q35 0 63.5 17.5t53.5 54.5l32 -19q-42 -84 -100.5 -124t-138.5 -40q-65 0 -107.5 42t-42.5 108q0 84 67 168.5t202 169.5h51z" />
    <glyph glyph-name="tilde" unicode="&#x2dc;" 
d="M801 1405q-14 -117 -68 -182.5t-137 -65.5q-16 0 -51 7q-4 1 -6 1l-105 27q-14 4 -29 6t-28 2q-32 0 -53.5 -20.5t-36.5 -65.5h-66q17 124 69.5 185t141.5 61q17 0 32.5 -2t31.5 -6l108 -27q1 0 5 -1q23 -7 34 -7q32 0 54 21t38 67h66z" />
    <glyph glyph-name="hungarumlaut" unicode="&#x2dd;" 
d="M565 1081l197 283q39 54 59 68t45 14q34 0 57 -22.5t23 -55.5q0 -25 -16.5 -50.5t-48.5 -49.5l-242 -187h-74zM313 1081l144 273q31 56 52.5 75t49.5 19q33 0 55.5 -22t22.5 -54q0 -25 -13 -49.5t-38 -48.5l-199 -193h-74z" />
    <glyph glyph-name="Omega" unicode="&#x3a9;" horiz-adv-x="1569" 
d="M1133 258v-14h290l43 145h78l-117 -389h-530q98 217 147.5 431.5t49.5 422.5q0 279 -76.5 417t-231.5 138t-232 -138.5t-77 -416.5q0 -208 50 -422t149 -432h-533l-116 389h75l45 -145h289v14q-164 88 -253 239t-89 343q0 285 196.5 471t495.5 186q300 0 495.5 -186
t195.5 -471q0 -191 -89 -341t-255 -241z" />
    <glyph glyph-name="pi" unicode="&#x3c0;" horiz-adv-x="1477" 
d="M1444 885l-60 -275h-348q-4 -64 -6 -117t-2 -81q0 -47 4 -123.5t4 -106.5q0 -116 -38.5 -170.5t-120.5 -54.5q-52 0 -81.5 32.5t-29.5 88.5q0 73 73 245t101 287h-375q-4 -68 -6 -121t-2 -77q0 -48 3 -124t3 -106q0 -116 -38.5 -170.5t-121.5 -54.5q-50 0 -79 32t-29 89
q0 74 72 246t100 286h-156q-118 0 -167 -32t-66 -117h-64q45 238 138 331t284 93h1008z" />
    <glyph glyph-name="endash" unicode="&#x2013;" 
d="M0 377v190h1024v-190h-1024z" />
    <glyph glyph-name="emdash" unicode="&#x2014;" horiz-adv-x="2048" 
d="M0 377v190h2048v-190h-2048z" />
    <glyph glyph-name="quoteleft" unicode="&#x2018;" horiz-adv-x="512" 
d="M403 1421l29 -51q-116 -79 -168.5 -145t-52.5 -131q0 -21 6.5 -29t26.5 -8q5 0 20.5 1t24.5 1q65 0 105 -44t40 -114q0 -80 -46.5 -129t-123.5 -49q-86 0 -140 66t-54 174q0 135 82.5 248.5t250.5 209.5z" />
    <glyph glyph-name="quoteright" unicode="&#x2019;" horiz-adv-x="512" 
d="M102 723l-30 49q116 79 168.5 145t52.5 132q0 22 -7 30t-26 8q-6 0 -21 -2t-24 -2q-65 0 -105 44t-40 114q0 81 46.5 130.5t123.5 49.5q85 0 139.5 -67t54.5 -174q0 -136 -81.5 -248.5t-250.5 -208.5z" />
    <glyph glyph-name="quotesinglbase" unicode="&#x201a;" horiz-adv-x="512" 
d="M102 -389l-30 49q116 79 168.5 145t52.5 132q0 22 -7 30t-26 8q-6 0 -21 -2t-24 -2q-65 0 -105 44t-40 114q0 81 46.5 130.5t123.5 49.5q85 0 139.5 -67t54.5 -174q0 -136 -81.5 -248.5t-250.5 -208.5z" />
    <glyph glyph-name="quotedblleft" unicode="&#x201c;" horiz-adv-x="995" 
d="M887 1421l28 -51q-117 -80 -169 -144.5t-52 -129.5q0 -23 7 -31t26 -8q6 0 21 1t24 1q65 0 105.5 -43t40.5 -113q0 -81 -46.5 -130.5t-121.5 -49.5q-87 0 -142 66.5t-55 173.5q0 135 82.5 248.5t251.5 209.5zM403 1421l29 -51q-118 -80 -169.5 -144.5t-51.5 -129.5
q0 -23 7 -31t26 -8q5 0 20.5 1t24.5 1q65 0 105 -43t40 -113q0 -80 -47 -130t-123 -50q-86 0 -140 66t-54 174q0 135 82.5 248.5t250.5 209.5z" />
    <glyph glyph-name="quotedblright" unicode="&#x201d;" horiz-adv-x="995" 
d="M102 723l-30 49q116 79 168.5 145t52.5 132q0 22 -7 30t-26 8q-6 0 -21 -2t-24 -2q-65 0 -105 44t-40 114q0 81 46.5 130.5t123.5 49.5q85 0 139.5 -67t54.5 -174q0 -136 -81.5 -248.5t-250.5 -208.5zM586 723l-31 49q118 80 170.5 145.5t52.5 131.5q0 21 -7.5 29.5
t-27.5 8.5q-5 0 -20.5 -2t-24.5 -2q-64 0 -104.5 44t-40.5 114q0 81 47 130.5t123 49.5q85 0 140 -67t55 -174q0 -136 -82 -248.5t-250 -208.5z" />
    <glyph glyph-name="quotedblbase" unicode="&#x201e;" horiz-adv-x="995" 
d="M586 -389l-31 49q118 80 170.5 145.5t52.5 131.5q0 21 -7.5 29.5t-27.5 8.5q-5 0 -20.5 -2t-24.5 -2q-64 0 -104.5 44t-40.5 114q0 81 47 130.5t123 49.5q85 0 140 -67t55 -174q0 -136 -82 -248.5t-250 -208.5zM102 -389l-30 49q116 79 168.5 145t52.5 132q0 22 -7 30
t-26 8q-6 0 -21 -2t-24 -2q-65 0 -105 44t-40 114q0 81 46.5 130.5t123.5 49.5q85 0 139.5 -67t54.5 -174q0 -136 -81.5 -248.5t-250.5 -208.5z" />
    <glyph glyph-name="dagger" unicode="&#x2020;" 
d="M486 -313q-6 254 -31 462t-72 394q51 83 76.5 169.5t25.5 174.5v20q-67 -2 -158.5 -45t-129.5 -43q-53 0 -84 29.5t-31 79.5q0 49 34 80.5t87 31.5q41 0 131.5 -40t150.5 -41v22q0 95 -44 202t-44 128q0 49 32 79.5t83 30.5q53 0 85 -29.5t32 -78.5q0 -10 -44 -122
t-44 -220v-13h4q65 0 154.5 40t125.5 40q56 0 86.5 -28t30.5 -80q0 -54 -30.5 -83.5t-86.5 -29.5q-40 0 -130 41.5t-156 46.5q6 -116 32.5 -206.5t73.5 -155.5q-47 -165 -72 -380t-26 -476h-61z" />
    <glyph glyph-name="daggerdbl" unicode="&#x2021;" 
d="M383 543q51 83 76.5 169.5t25.5 174.5v20q-67 -2 -158.5 -45t-129.5 -43q-53 0 -84 29.5t-31 79.5q0 49 33.5 80.5t85.5 31.5q41 0 132.5 -40t151.5 -41v22q0 95 -44 202t-44 128q0 49 32 79.5t83 30.5q53 0 85 -30t32 -78q0 -9 -44 -121t-44 -221v-13h4q65 0 154.5 40
t125.5 40q56 0 85.5 -28t29.5 -80q0 -54 -30 -83.5t-85 -29.5q-40 0 -130 41.5t-156 46.5q6 -118 32 -208t72 -154q-52 -77 -78 -165.5t-26 -187.5v-10q67 2 158.5 45t129.5 43q53 0 83 -29t30 -79t-33.5 -81.5t-85.5 -31.5q-41 0 -132 40.5t-150 41.5v-23q0 -95 44 -202
t44 -127q0 -49 -32 -80t-83 -31q-53 0 -86 30.5t-33 78.5q0 9 45 121t45 221v12q-66 0 -156.5 -41t-127.5 -41q-56 0 -86.5 29t-30.5 82t30.5 82.5t86.5 29.5q40 0 129.5 -41t156.5 -47q-6 115 -31 203t-71 158z" />
    <glyph glyph-name="bullet" unicode="&#x2022;" horiz-adv-x="1208" 
d="M307 762q0 123 87 209t210 86q122 0 208.5 -86.5t86.5 -208.5t-87.5 -209.5t-209.5 -87.5q-123 0 -209 87t-86 210z" />
    <glyph glyph-name="ellipsis" unicode="&#x2026;" horiz-adv-x="2048" 
d="M172 145q0 76 48.5 125t123.5 49q72 0 120 -50t48 -126q0 -74 -48.5 -123t-123.5 -49t-121.5 48t-46.5 126zM854 145q0 76 48.5 125t123.5 49q72 0 120 -50t48 -126q0 -74 -48.5 -123t-123.5 -49t-121.5 48t-46.5 126zM1538 145q0 76 48.5 125t123.5 49q72 0 120 -50
t48 -126q0 -74 -48.5 -123t-123.5 -49t-121.5 48t-46.5 126z" />
    <glyph glyph-name="perthousand" unicode="&#x2030;" horiz-adv-x="2390" 
d="M1380 672q-50 0 -93 -42.5t-93 -142.5q-42 -83 -65 -160.5t-23 -131.5q0 -52 26.5 -82.5t71.5 -30.5q51 0 102 41t99 121q41 67 63.5 142.5t22.5 143.5q0 66 -30 104t-81 38zM864 250q0 91 28 174t85 160q68 91 157 141.5t181 50.5q111 0 177.5 -66t66.5 -178
q0 -74 -23 -156t-66 -161q-61 -114 -149.5 -174.5t-192.5 -60.5q-111 0 -187.5 78t-76.5 192zM2161 672q-51 0 -95.5 -43t-93.5 -142q-41 -83 -64.5 -160.5t-23.5 -131.5q0 -52 27.5 -82.5t73.5 -30.5q50 0 101 41t99 121q41 67 63.5 142.5t22.5 143.5q0 66 -29.5 104
t-80.5 38zM1647 250q0 89 28.5 172.5t85.5 161.5q68 90 158 141t180 51q112 0 178 -66t66 -178q0 -73 -23 -155.5t-65 -161.5q-62 -114 -150 -174.5t-192 -60.5q-112 0 -189 78t-77 192zM641 1243q-14 1 -36.5 13t-59.5 38q-38 -4 -73 -32.5t-73 -85.5q-59 -92 -96 -193
t-37 -166q0 -52 27 -82t72 -30q56 0 108.5 42t97.5 123q42 73 63 144.5t21 138.5q0 25 -3.5 47.5t-10.5 42.5zM348 -29l709 1286q-58 -27 -118 -41t-120 -14q-27 0 -49.5 2.5t-42.5 7.5v-32q0 -242 -128 -409t-304 -167q-121 0 -191.5 73t-70.5 200q0 93 36.5 183t108.5 171
q74 82 154 123t166 41q56 0 103.5 -21.5t96.5 -68.5q30 -16 62.5 -23.5t70.5 -7.5q84 0 170 34t175 103h79l-798 -1440h-109z" />
    <glyph glyph-name="guilsinglleft" unicode="&#x2039;" horiz-adv-x="645" 
d="M43 473q139 108 301.5 248.5t183.5 140.5q14 0 21.5 -8t7.5 -23q0 -33 -54 -114.5t-186 -243.5q119 -145 179.5 -235.5t60.5 -124.5q0 -14 -7 -21.5t-20 -7.5q-23 0 -186.5 141t-300.5 248z" />
    <glyph glyph-name="guilsinglright" unicode="&#x203a;" horiz-adv-x="645" 
d="M602 473q-137 -107 -301 -248t-186 -141q-14 0 -21.5 7.5t-7.5 21.5q0 34 55.5 118t184.5 242q-121 147 -180.5 236t-59.5 122q0 14 8 22.5t21 8.5q23 0 186.5 -141t300.5 -248z" />
    <glyph glyph-name="franc" unicode="&#x20a3;" horiz-adv-x="2109" 
d="M47 0v53q104 6 142 48.5t38 154.5v887q0 109 -37 146.5t-147 47.5v52h1157v-414h-49q-31 187 -125.5 263.5t-298.5 76.5h-39q-92 0 -112.5 -19.5t-20.5 -81.5v-460h25q133 0 200.5 71t85.5 232h56v-697h-54q-15 172 -83 247t-205 75h-25v-436q0 -114 45.5 -152.5
t181.5 -40.5v-53h-735zM1288 0l1 49q58 3 81 28.5t23 92.5v598q0 78 -20 101t-78 26l1 51h381v-178q51 94 123 148.5t144 54.5q80 0 126 -43t46 -117q0 -60 -35 -96.5t-92 -36.5q-35 0 -59.5 10t-39.5 31q-6 8 -16 25q-29 49 -66 49q-48 0 -84 -60t-36 -147v-416
q0 -67 30.5 -92.5t116.5 -28.5v-49h-547z" />
    <glyph glyph-name="trademark" unicode="&#x2122;" horiz-adv-x="1683" 
d="M758 1454h211l131 -369l129 369h198v-27l-27 -4q-19 -3 -27.5 -15t-8.5 -36v-379q0 -24 9 -36t28 -15l26 -4v-33h-253v33l30 4q18 3 27.5 16t9.5 35v365l-156 -455h-36l-166 463v-373q0 -22 9 -35t28 -16l34 -4v-33h-196v33l34 4q19 3 28 16t9 35v373q0 23 -9 35.5
t-27 15.5l-35 4v33zM238 1454h450l12 -192h-32q-8 79 -39.5 115t-91.5 36h-7v-420q1 -23 9.5 -35.5t25.5 -15.5l31 -4v-33h-266v33l30 4q17 3 26 16t9 35v420h-10q-59 0 -89 -36t-38 -115h-33z" />
    <glyph glyph-name="partialdiff" unicode="&#x2202;" horiz-adv-x="1094" 
d="M762 662q19 99 29 188.5t10 155.5q0 100 -26 157.5t-70 57.5t-146 -73t-160 -73q-42 0 -71 30t-29 73q0 64 86.5 118t210.5 54q192 0 309 -161.5t117 -432.5q0 -339 -156.5 -560t-396.5 -221q-171 0 -282 114.5t-111 291.5q0 198 116 329.5t287 131.5q102 0 170 -43.5
t113 -136.5zM700 518q0 116 -38.5 178t-110.5 62q-101 0 -167.5 -134t-66.5 -341q0 -117 38.5 -177.5t111.5 -60.5q101 0 167 133.5t66 339.5z" />
    <glyph glyph-name="Delta" unicode="&#x2206;" horiz-adv-x="1350" 
d="M547 1116l-381 -827h764zM647 1497h68l692 -1497h-1460z" />
    <glyph glyph-name="product" unicode="&#x220f;" horiz-adv-x="1724" 
d="M47 1473h1624v-84h-190v-1698h190v-84h-698v84h178v1698h-582v-1698h176v-84h-698v84h191v1698h-191v84z" />
    <glyph glyph-name="summation" unicode="&#x2211;" horiz-adv-x="1542" 
d="M25 1473h1235l139 -429h-88l-92 250q-19 52 -60.5 73.5t-167.5 21.5h-557l666 -783v-41l-735 -680h886q48 0 65 13t27 51l72 229h88l-174 -571h-1309v71l822 756l-817 973v66z" />
    <glyph glyph-name="minus" unicode="&#x2212;" horiz-adv-x="1706" 
d="M254 713h1198v-203h-1198v203z" />
    <glyph glyph-name="fraction" unicode="&#x2215;" horiz-adv-x="342" 
d="M-342 -33l913 1440h111l-909 -1440h-115z" />
    <glyph glyph-name="periodcentered" unicode="&#x2219;" horiz-adv-x="512" 
d="M84 696q0 74 49.5 124t124.5 50q71 0 119.5 -50.5t48.5 -125.5q0 -73 -48.5 -121.5t-123.5 -48.5t-122.5 48t-47.5 124z" />
    <glyph glyph-name="radical" unicode="&#x221a;" horiz-adv-x="1346" 
d="M1141 1694h207v-129h-103l-592 -1606h-100l-311 858l-140 -51l-30 113l331 116l236 -661z" />
    <glyph glyph-name="infinity" unicode="&#x221e;" horiz-adv-x="1706" 
d="M942 561q45 -75 106.5 -113t139.5 -38q94 0 152.5 55.5t58.5 144.5q0 86 -54 142.5t-135 56.5q-74 0 -136 -57t-132 -191zM766 659q-46 76 -107 113t-139 37q-93 0 -152 -56.5t-59 -144.5q0 -85 54 -141.5t135 -56.5q75 0 138 58t130 191zM858 457q-69 -133 -147 -195.5
t-174 -62.5q-139 0 -235.5 117.5t-96.5 293.5q0 184 85.5 297t223.5 113q93 0 169.5 -58.5t164.5 -199.5q68 132 148 196t175 64q139 0 235.5 -118t96.5 -294q0 -183 -86 -296t-223 -113q-93 0 -168.5 56.5t-167.5 199.5z" />
    <glyph glyph-name="integral" unicode="&#x222b;" horiz-adv-x="1186" 
d="M342 -252q102 0 121 639q3 136 6 211q16 508 123 732t328 224q98 0 157.5 -49t59.5 -129q0 -60 -38 -96.5t-100 -36.5q-46 0 -77 24t-41 68q-5 20 -7 54q-3 46 -30 47q-99 0 -119 -633q-4 -116 -6 -178q-11 -296 -31 -444.5t-59 -250.5q-56 -148 -148.5 -225.5
t-214.5 -77.5q-96 0 -156.5 49t-60.5 127q0 62 39 99t105 37q50 0 85 -31.5t35 -71.5q0 -58 6 -73t23 -15z" />
    <glyph glyph-name="approxequal" unicode="&#x2248;" horiz-adv-x="1706" 
d="M1530 596v-219q-106 -72 -198 -105.5t-181 -33.5q-95 0 -286.5 66.5t-301.5 66.5q-84 0 -174.5 -37t-210.5 -121v219q111 73 206.5 108t180.5 35q124 0 315.5 -65.5t274.5 -65.5q86 0 174 35.5t201 116.5zM1530 1008v-220q-106 -71 -196.5 -104t-180.5 -33
q-94 0 -286 65.5t-304 65.5q-82 0 -170 -35t-215 -122v219q107 71 204 107t183 36q125 0 316.5 -65.5t273.5 -65.5q84 0 171 35t204 117z" />
    <glyph glyph-name="notequal" unicode="&#x2260;" horiz-adv-x="1706" 
d="M1198 1233l148 -119l-154 -192h260v-191h-389l-191 -239h580v-193h-707l-245 -309l-148 119l154 190h-252v193h377l190 239h-567v191h696z" />
    <glyph glyph-name="lessequal" unicode="&#x2264;" horiz-adv-x="1706" 
d="M258 195h1192v-197h-1192v197zM1448 1241v-209l-834 -264l834 -262v-209l-1190 385v174z" />
    <glyph glyph-name="greaterequal" unicode="&#x2265;" horiz-adv-x="1706" 
d="M258 195h1192v-197h-1192v197zM260 1241l1188 -385v-174l-1188 -385v209l832 262l-832 264v209z" />
    <glyph glyph-name="lozenge" unicode="&#x25ca;" horiz-adv-x="1012" 
d="M506 1409l-385 -817l385 -825l385 825zM506 1653l500 -1061l-500 -1069l-500 1069z" />
    <glyph glyph-name="apple" unicode="&#xf000;" horiz-adv-x="1618" 
d="M836 1216q-1 6 -1.5 14t-0.5 23q0 124 95 229.5t236 131.5q1 -10 1.5 -23t0.5 -39q0 -131 -103.5 -234.5t-203.5 -103.5h-8q-3 0 -7.5 1t-8.5 1zM1505 403q-114 -247 -205 -342.5t-204 -95.5q-50 0 -131.5 33t-122.5 33q-45 0 -131 -33t-127 -33q-64 0 -128.5 44
t-129.5 132q-102 140 -157.5 295.5t-55.5 300.5q0 219 125 356.5t323 137.5q68 0 155 -34t124 -34q34 0 121.5 35t152.5 35q110 0 198 -40t161 -124q-102 -65 -151.5 -145.5t-49.5 -182.5q0 -113 60 -200t173 -138z" />
    <glyph glyph-name="fi" unicode="&#xf001;" horiz-adv-x="1214" 
d="M53 0l1 49q59 3 82.5 29t23.5 92v674h-111v102h111v45q0 212 111.5 319t332.5 107q170 0 267.5 -51t97.5 -139q0 -53 -36 -86t-95 -33q-64 0 -100 28t-36 76q0 19 9.5 48t9.5 38q0 26 -29 43t-76 17q-84 0 -124.5 -50.5t-40.5 -156.5v-205h215q147 0 234.5 6t160.5 19
v-801q0 -68 21 -93t75 -28v-49h-493v49q59 3 81.5 28.5t22.5 92.5v608q0 46 -10.5 56t-73.5 10h-233v-674q0 -67 21.5 -92.5t76.5 -28.5v-49h-496z" />
    <glyph glyph-name="fl" unicode="&#xf002;" horiz-adv-x="1214" 
d="M451 946h317v207q-12 14 -17.5 29.5t-5.5 34.5q0 14 7.5 42t7.5 39q0 32 -29 46t-96 14q-91 0 -137.5 -49t-46.5 -144v-219zM53 0l1 49q59 3 82.5 29t23.5 92v674h-111v102h113v37q0 226 113.5 330t359.5 104q72 0 143 -16t146 -49l102 63h35v-1245q0 -68 21 -93t75 -28
v-49h-493v49q59 3 81.5 28.5t22.5 92.5v674h-317v-674q0 -67 21.5 -92.5t76.5 -28.5v-49h-496z" />
    </font>
</defs>
</svg>
